<svg width="112" height="30" viewBox="0 0 112 30" fill="none" xmlns="http://www.w3.org/2000/svg">
<g opacity="0.5">
<path d="M2.57795 18.3714C1.02989 20.5215 0.255859 22.9296 0.255859 24.7786C0.255859 27.3157 1.63191 29.1648 4.16901 29.1648C5.88907 29.1648 7.82415 27.8318 9.0712 26.6277C9.41521 28.2188 10.6623 29.3368 12.8123 29.3368C15.4354 29.3368 18.1875 27.0577 19.3056 24.6926C19.9076 23.4456 19.6496 22.2845 19.4776 21.8975C19.0476 20.9945 18.6606 21.0375 18.1875 21.8975C16.7685 24.6926 14.6184 27.6167 13.0703 27.6167C12.6403 27.6167 12.4683 27.2297 12.4683 26.5847C12.4683 23.7036 16.0805 19.0164 17.1985 16.6513C18.3165 14.4152 17.9295 12.5232 17.1985 11.6631C16.6825 11.0611 15.9515 11.1041 15.4354 11.9642L14.6184 13.2972C14.2314 12.1792 13.2854 11.4051 11.7373 11.4051C9.54421 11.4051 6.01808 13.4262 2.57795 18.3714ZM4.72803 27.2727C4.29801 27.2727 4.12601 26.7567 4.12601 25.9827C4.12601 24.6066 4.85703 22.3275 6.14708 20.3065C8.34017 16.7803 11.3073 14.0712 12.1673 14.0712C12.5973 14.0712 12.6833 14.3722 12.6833 14.8883C12.6833 16.0063 11.9093 18.1134 10.2322 21.0375C8.12516 24.6496 6.14708 27.2727 4.72803 27.2727Z" fill="white"/>
<path d="M23.0565 27.2297C22.1104 27.2297 21.2074 25.7247 20.6914 23.7036C21.9814 21.8545 23.1855 20.0055 24.2175 18.3714C24.3035 19.5324 24.3465 20.9085 24.3465 22.2845C24.3465 25.0797 23.9595 27.2297 23.0565 27.2297ZM17.1652 23.1016C17.1652 24.0906 17.4233 25.1227 17.8963 25.9397C19.3583 28.6488 21.9384 29.3368 24.5185 29.2508C27.7436 29.1218 30.7538 27.4877 32.3878 24.4776C33.1619 23.1446 33.0329 21.9405 32.8178 21.5105C32.5168 20.8225 31.8718 20.5215 31.4848 21.5105C30.7108 23.6176 29.5067 25.0366 27.7436 26.2407C28.2167 25.2947 28.4317 24.0906 28.4747 23.0156C28.5607 20.6935 28.0017 17.8984 28.0017 14.8453C28.0017 14.2862 28.0447 13.5552 28.0877 13.0392C29.4207 10.8461 29.1627 9.90007 28.0017 9.90007C27.3566 9.90007 26.5826 10.2011 25.8946 10.8031C24.9055 11.6201 24.3895 12.6092 24.2175 14.1572C23.0995 16.0063 21.5944 18.2424 20.1754 20.2635C20.0464 19.2314 19.4013 19.0164 18.5413 19.7474C17.5953 20.5645 17.1652 21.8115 17.1652 23.1016Z" fill="white"/>
<path d="M44.6759 2.58979C44.6759 1.98777 44.5039 1.42875 44.2459 0.912731C43.7728 0.00969544 43.0848 0.00969532 42.3968 0.869727C38.6126 6.07293 32.4204 18.1994 30.4853 23.7036C30.0553 24.9506 29.9263 25.8967 29.9263 26.5847C29.9263 27.4877 30.1843 28.0898 30.6143 28.5628C31.1304 29.2078 31.8184 28.9928 32.1194 28.3908C33.4955 25.1657 34.6565 22.5426 35.8175 20.4785C35.8175 26.4987 38.3976 28.9928 41.5798 29.0358C45.2349 29.0788 47.428 25.9827 48.245 24.4776C48.89 23.3596 48.976 22.2845 48.761 21.7255C48.374 20.6505 47.815 20.7365 47.299 21.7685C46.0949 24.2626 43.7298 27.2727 42.2678 27.2727C40.9777 27.2727 39.9457 24.9076 39.7737 21.6825C42.3108 20.8225 44.0739 19.6184 45.4499 18.2854C46.5249 17.2534 46.955 16.1783 46.955 15.1463C46.955 14.4152 46.783 13.7272 46.4389 13.0822C45.4929 11.1041 44.3319 10.4161 42.3968 11.1041C41.6658 11.3621 40.9347 11.6631 40.1607 12.2222C42.7408 7.53498 44.6759 4.26686 44.6759 2.58979ZM44.0739 13.2112C44.4609 13.7702 43.6868 15.1893 41.9668 16.6083C40.5477 17.7694 37.5376 19.1024 36.2906 19.5324C37.5806 17.3824 38.7847 15.8343 40.2467 14.7163C42.2248 13.2112 43.7298 12.6952 44.0739 13.2112Z" fill="white"/>
<path d="M53.7922 9.59906C53.7922 10.9321 54.9533 12.2222 56.3293 12.2222C57.4044 12.2222 58.0494 11.2331 58.0494 10.0721C58.0494 8.82503 56.8883 7.27697 55.6843 7.27697C54.6953 7.27697 53.7922 8.39502 53.7922 9.59906ZM56.9743 24.6926C57.5334 23.5746 57.5764 22.4996 57.1894 21.7685C56.8023 20.9945 56.2433 20.9085 55.8993 21.6825C54.5663 24.6066 52.3302 27.4877 50.6101 27.4877C50.1371 27.4877 49.9651 27.1007 49.9651 26.4127C49.9651 25.7247 50.1801 24.8216 50.5671 23.8326C51.2981 22.1125 53.2762 18.8874 54.0932 17.0383C55.2113 14.8883 54.8673 13.0392 54.0502 12.1792C53.4912 11.5341 52.9752 11.6201 52.3302 12.4802C50.7391 14.7163 47.987 19.7044 46.912 22.7146C46.568 23.8326 46.3959 24.7356 46.3959 25.5527C46.3959 27.7027 47.557 29.2078 50.1801 29.2078C52.7172 29.2078 55.6843 27.4017 56.9743 24.6926Z" fill="white"/>
<path d="M63.045 11.7491C62.615 10.9751 61.9699 10.9321 61.4109 11.7491C58.7878 15.7483 55.6917 21.7255 54.7887 24.3056C54.4446 25.2947 54.3156 26.0257 54.3156 26.6277C54.3156 27.6167 54.7457 28.3908 55.3477 28.9068C56.0787 29.5518 56.5517 29.2938 56.8527 28.6058C58.5298 24.6496 60.5079 20.7365 62.916 18.1564C65.4961 15.3183 67.1731 14.3722 67.5171 14.3722C67.9042 14.3722 66.7001 16.0063 65.5391 17.9414C64.378 19.7474 62.959 22.0695 62.3569 23.6176C61.9269 24.6926 61.5829 26.0687 61.5829 26.7997C61.5829 27.9178 61.8839 28.5198 62.5289 29.1648C63.217 29.8528 63.819 29.7238 64.249 28.9068C66.0551 24.9076 68.1192 20.8225 71.4733 17.4684C74.0104 14.9313 74.9134 14.5012 75.2574 14.5012C75.6014 14.5012 74.5694 15.7913 73.6234 17.2104C72.6343 18.7584 71.2153 21.0805 70.5273 22.5426C70.0542 23.6176 69.8822 24.5636 69.8822 25.3377C69.8822 27.6597 71.4733 29.2508 74.3974 29.2508C77.0635 29.2508 80.1166 27.1007 81.3207 24.6066C81.8367 23.6176 81.7937 21.9835 81.3207 21.5105C80.9336 21.1235 80.5036 21.1665 80.1166 21.8115C78.5256 24.4346 76.4185 27.4447 75.0854 27.4447C74.3974 27.4447 73.9674 26.7567 73.9674 25.7677C73.9674 24.2626 75.0854 22.3705 76.2895 20.5215C78.0525 17.8124 78.9556 15.8343 78.9556 14.3722C78.9556 12.9532 78.2675 11.7921 77.0205 11.7491C75.6444 11.7061 73.3654 13.1682 71.4303 14.8883C71.4303 13.0822 70.5273 11.5341 69.1512 11.5341C67.7751 11.5341 65.3671 13.1682 63.518 14.9743C63.604 14.5442 63.647 14.1572 63.647 13.8132C63.647 13.1252 63.432 12.3942 63.045 11.7491Z" fill="white"/>
<path d="M82.1562 18.3714C80.6081 20.5215 79.8341 22.9296 79.8341 24.7786C79.8341 27.3157 81.2101 29.1648 83.7472 29.1648C85.4673 29.1648 87.4024 27.8318 88.6494 26.6277C88.9934 28.2188 90.2405 29.3368 92.3906 29.3368C95.0137 29.3368 97.7658 27.0577 98.8838 24.6926C99.4858 23.4456 99.2278 22.2845 99.0558 21.8975C98.6258 20.9945 98.2388 21.0375 97.7658 21.8975C96.3467 24.6926 94.1966 27.6167 92.6486 27.6167C92.2186 27.6167 92.0466 27.2297 92.0466 26.5847C92.0466 23.7036 95.6587 19.0164 96.7767 16.6513C97.8948 14.4152 97.5078 12.5232 96.7767 11.6631C96.2607 11.0611 95.5297 11.1041 95.0137 11.9642L94.1966 13.2972C93.8096 12.1792 92.8636 11.4051 91.3155 11.4051C89.1224 11.4051 85.5963 13.4262 82.1562 18.3714ZM84.3063 27.2727C83.8762 27.2727 83.7042 26.7567 83.7042 25.9827C83.7042 24.6066 84.4353 22.3275 85.7253 20.3065C87.9184 16.7803 90.8855 14.0712 91.7455 14.0712C92.1756 14.0712 92.2616 14.3722 92.2616 14.8883C92.2616 16.0063 91.4875 18.1134 89.8105 21.0375C87.7034 24.6496 85.7253 27.2727 84.3063 27.2727Z" fill="white"/>
<path d="M97.3025 24.3916C97.3025 27.3587 99.2806 29.2078 101.56 29.2078C105.172 29.2078 108.053 25.5097 108.655 24.2196C109.128 23.2306 109.3 22.5856 109.085 21.6825C108.784 20.5215 107.795 20.6075 107.322 21.6395C105.817 24.8646 103.581 27.5737 101.904 27.5737C101.173 27.5737 100.743 26.6707 100.743 25.3807C100.743 24.4346 101.001 23.3166 101.517 22.1555C103.022 18.8874 105.473 14.6303 107.107 11.8351C108.053 11.7061 109.171 11.6201 109.945 11.7061C110.977 11.8351 111.278 11.3191 110.848 10.5451C110.547 10.0291 109.816 9.34105 108.483 9.16904C108.999 7.965 109.171 6.97596 109.171 6.20193C109.171 5.68591 108.999 4.95488 108.698 4.43886C108.225 3.62183 107.709 3.57883 107.064 4.52487C106.075 5.94392 105.172 7.36298 103.839 9.68506C102.893 9.77107 101.732 9.81407 100.743 9.77107C99.7536 9.72807 99.3236 10.1581 99.9256 11.0611C100.27 11.5771 101.044 12.0502 102.377 12.2222C100.657 15.3183 99.0226 18.7154 98.1625 20.8225C97.5605 22.2415 97.3025 23.4456 97.3025 24.3916Z" fill="white"/>
</g>
</svg>
