<svg width="111" height="28" viewBox="0 0 111 28" fill="none" xmlns="http://www.w3.org/2000/svg">
<g opacity="0.5">
<path d="M35.9852 16.9245V7.77023C35.9852 7.23427 35.9423 6.13733 35.8566 4.47941L37.0035 8.49914L39.7262 16.9245H41.9773L44.7 8.49914C44.7405 8.37289 44.7846 8.23046 44.8325 8.07186L44.8916 7.87376C45.1252 7.08464 45.4365 5.95319 45.8255 4.47941C45.7612 6.05157 45.7272 6.94127 45.7237 7.14851C45.7201 7.35575 45.7183 7.56299 45.7183 7.77023V16.9245H48.5267V1.82103H44.3141L41.5378 10.6859L40.8625 13.1084L40.3479 11.0825L40.1121 10.2678L37.4109 1.82103H33.1768V16.9245H35.9852ZM54.189 17.1389C55.8898 17.1389 57.1618 16.3778 58.005 14.8557H58.0693C58.1408 15.5774 58.357 16.1241 58.7179 16.4957C59.0787 16.8673 59.6379 17.0531 60.3954 17.0531C60.6098 17.0531 60.7974 17.046 60.9582 17.0317C61.119 17.0174 61.2708 16.9995 61.4138 16.9781C61.5567 16.9566 61.6996 16.9281 61.8425 16.8923C61.9854 16.8566 62.1462 16.8173 62.3249 16.7744V15.1451C62.1105 15.188 61.889 15.2094 61.6603 15.2094C61.3173 15.2094 61.0725 15.0861 60.926 14.8396C60.7795 14.593 60.7063 14.1446 60.7063 13.4943V9.27093C60.7063 7.94174 60.3097 6.91626 59.5164 6.1945C58.7232 5.47273 57.5941 5.11185 56.1292 5.11185C54.6785 5.11185 53.5333 5.40306 52.6936 5.98547C51.854 6.56788 51.3376 7.42364 51.1447 8.55273L54.2854 8.7028C54.3498 8.11682 54.5123 7.69698 54.7732 7.44329C55.034 7.1896 55.4431 7.06276 56.0005 7.06276C56.6008 7.06276 57.0331 7.24677 57.2976 7.6148C57.562 7.98283 57.6942 8.54559 57.6942 9.30308V9.89264L55.1966 9.93552C53.7102 9.94981 52.5757 10.2714 51.7932 10.9003C51.0107 11.5291 50.6194 12.4438 50.6194 13.6444C50.6194 14.752 50.9339 15.6114 51.5627 16.2224C52.1916 16.8334 53.067 17.1389 54.189 17.1389ZM55.1537 15.0379C54.7321 15.0379 54.3944 14.9039 54.1407 14.6359C53.887 14.3679 53.7602 13.9588 53.7602 13.4086C53.7602 12.9798 53.837 12.6368 53.9907 12.3795C54.1443 12.1223 54.3676 11.9311 54.6606 11.806C54.9536 11.681 55.4503 11.6042 56.1506 11.5756L57.6942 11.5541V12.1437C57.6942 12.6511 57.5834 13.1316 57.3619 13.5854C57.1403 14.0392 56.8348 14.3947 56.4454 14.652C56.0559 14.9093 55.6253 15.0379 55.1537 15.0379ZM66.7115 16.9245V11.2326C66.7115 10.0391 66.9205 9.13872 67.3386 8.5313C67.7566 7.92387 68.3408 7.62016 69.0912 7.62016C69.4628 7.62016 69.8916 7.67376 70.3775 7.78095V5.26192C70.1417 5.15473 69.8308 5.10113 69.4449 5.10113C68.9733 5.10113 68.5802 5.18153 68.2658 5.34231C67.9514 5.5031 67.6798 5.74965 67.4511 6.08194C67.2225 6.41424 66.9616 6.98772 66.6686 7.80239H66.6258C66.6258 7.588 66.6079 7.15387 66.5722 6.5C66.5364 5.84612 66.5078 5.45487 66.4864 5.32624H63.6136C63.6351 5.65496 63.6547 6.03192 63.6726 6.45712C63.6905 6.88232 63.6994 7.41292 63.6994 8.04893V16.9245H66.7115ZM75.1929 17.1174C76.1433 17.1174 76.9902 16.9959 77.7334 16.753V14.8878C77.2974 14.9879 76.9616 15.0379 76.7258 15.0379C76.2755 15.0379 75.9432 14.9039 75.7289 14.6359C75.5145 14.3679 75.4073 13.9517 75.4073 13.3871V7.3629H77.6047V5.32624H75.4073V2.60354H73.5207L72.5774 5.32624H70.9588V7.3629H72.4273V14.2018C72.4273 15.1808 72.6667 15.9115 73.1455 16.3939C73.6243 16.8762 74.3068 17.1174 75.1929 17.1174ZM82.5273 3.23598V1.01709H79.5152V3.23598H82.5273ZM82.5273 16.9245V5.32624H79.5152V16.9245H82.5273ZM88.6076 16.9245V10.7073C88.6076 9.72828 88.8309 8.92612 89.2775 8.30083C89.7242 7.67554 90.312 7.3629 91.0409 7.3629C92.4201 7.3629 93.1097 8.38123 93.1097 10.4179V16.9245H96.1111V9.56035C96.1111 8.10253 95.7824 6.99487 95.1249 6.23737C94.4675 5.47988 93.5242 5.10113 92.295 5.10113C91.4446 5.10113 90.7121 5.30122 90.0976 5.70141C89.483 6.1016 88.9721 6.74475 88.5647 7.63088H88.5218C88.5218 7.40935 88.504 7.0038 88.4682 6.41424C88.4325 5.82468 88.4039 5.46201 88.3825 5.32624H85.5097C85.5312 5.64067 85.5508 5.99619 85.5687 6.3928C85.5865 6.78942 85.5955 7.29858 85.5955 7.9203V16.9245H88.6076ZM104.11 17.1389C105.954 17.1389 107.397 16.6047 108.441 15.5363C109.484 14.468 110.006 12.9941 110.006 11.1146C110.006 9.17803 109.507 7.69341 108.51 6.66078C107.513 5.62816 106.068 5.11185 104.174 5.11185C102.324 5.11185 100.884 5.64603 99.8545 6.71438C98.8255 7.78273 98.311 9.24949 98.311 11.1146C98.311 12.9869 98.8255 14.4591 99.8545 15.531C100.884 16.6029 102.302 17.1389 104.11 17.1389ZM104.078 15.0808C103.235 15.0808 102.59 14.7431 102.143 14.0678C101.696 13.3925 101.473 12.4081 101.473 11.1146C101.473 8.49199 102.388 7.18067 104.217 7.18067C105.075 7.18067 105.729 7.49153 106.179 8.11324C106.629 8.73496 106.854 9.73543 106.854 11.1146C106.854 13.7587 105.929 15.0808 104.078 15.0808Z" fill="#DCDCDC"/>
<path opacity="0.595853" d="M63.0353 26.3834C63.264 26.3834 63.4758 26.3468 63.6707 26.2737C63.8656 26.2006 64.0296 26.1032 64.1627 25.9813C64.2958 25.8595 64.4064 25.7358 64.4945 25.6102C64.5826 25.4846 64.6548 25.3543 64.711 25.2194L64.0475 25.0113C63.965 25.2175 63.8328 25.3918 63.651 25.5343C63.4692 25.6767 63.2602 25.748 63.024 25.748C62.6604 25.748 62.3699 25.5961 62.1524 25.2925C61.935 24.9888 61.8263 24.5765 61.8263 24.0554C61.8263 23.5418 61.9341 23.1322 62.1496 22.8267C62.3652 22.5212 62.6566 22.3684 63.024 22.3684C63.4102 22.3684 63.7232 22.584 63.9631 23.0151L64.5985 22.807C64.4673 22.5034 64.2677 22.2484 63.9997 22.0423C63.7316 21.8361 63.4102 21.733 63.0353 21.733C62.4542 21.733 61.98 21.942 61.6126 22.36C61.2452 22.778 61.0615 23.3431 61.0615 24.0554C61.0615 24.7789 61.248 25.3478 61.621 25.762C61.994 26.1763 62.4655 26.3834 63.0353 26.3834ZM66.5385 26.3834C66.7635 26.3834 66.965 26.3459 67.143 26.2709C67.3211 26.1959 67.4645 26.0994 67.5732 25.9813C67.6819 25.8632 67.7719 25.7264 67.8431 25.5708C67.9144 25.4152 67.964 25.2625 67.9921 25.1125C68.0203 24.9626 68.0343 24.8126 68.0343 24.6627C68.0343 24.1791 67.9069 23.7705 67.6519 23.4368C67.397 23.1032 67.0259 22.9363 66.5385 22.9363C66.0474 22.9363 65.6744 23.1032 65.4195 23.4368C65.1646 23.7705 65.0371 24.1791 65.0371 24.6627C65.0371 24.8201 65.0512 24.9748 65.0793 25.1266C65.1074 25.2784 65.158 25.4321 65.2311 25.5877C65.3042 25.7433 65.3961 25.8782 65.5067 25.9926C65.6173 26.1069 65.7616 26.2006 65.9397 26.2737C66.1177 26.3468 66.3174 26.3834 66.5385 26.3834ZM66.5385 25.7761C66.3324 25.7761 66.1524 25.6842 65.9987 25.5005C65.845 25.3168 65.7682 25.0376 65.7682 24.6627C65.7682 24.2803 65.8459 23.9982 66.0015 23.8164C66.1571 23.6346 66.3361 23.5437 66.5385 23.5437C66.741 23.5437 66.919 23.6346 67.0727 23.8164C67.2264 23.9982 67.3033 24.2803 67.3033 24.6627C67.3033 25.0376 67.2264 25.3168 67.0727 25.5005C66.919 25.6842 66.741 25.7761 66.5385 25.7761ZM69.3895 26.2822V21.688H68.681V26.2822H69.3895ZM71.5376 26.3834C71.7625 26.3834 71.964 26.3459 72.1421 26.2709C72.3202 26.1959 72.4635 26.0994 72.5723 25.9813C72.681 25.8632 72.7709 25.7264 72.8422 25.5708C72.9134 25.4152 72.9631 25.2625 72.9912 25.1125C73.0193 24.9626 73.0334 24.8126 73.0334 24.6627C73.0334 24.1791 72.9059 23.7705 72.651 23.4368C72.3961 23.1032 72.0249 22.9363 71.5376 22.9363C71.0465 22.9363 70.6735 23.1032 70.4186 23.4368C70.1636 23.7705 70.0362 24.1791 70.0362 24.6627C70.0362 24.8201 70.0502 24.9748 70.0784 25.1266C70.1065 25.2784 70.1571 25.4321 70.2302 25.5877C70.3033 25.7433 70.3951 25.8782 70.5057 25.9926C70.6163 26.1069 70.7606 26.2006 70.9387 26.2737C71.1168 26.3468 71.3164 26.3834 71.5376 26.3834ZM71.5376 25.7761C71.3314 25.7761 71.1515 25.6842 70.9978 25.5005C70.8441 25.3168 70.7672 25.0376 70.7672 24.6627C70.7672 24.2803 70.845 23.9982 71.0006 23.8164C71.1561 23.6346 71.3352 23.5437 71.5376 23.5437C71.74 23.5437 71.9181 23.6346 72.0718 23.8164C72.2255 23.9982 72.3023 24.2803 72.3023 24.6627C72.3023 25.0376 72.2255 25.3168 72.0718 25.5005C71.9181 25.6842 71.74 25.7761 71.5376 25.7761ZM74.3323 26.2822V24.6289C74.3323 24.314 74.397 24.0619 74.5263 23.8726C74.6557 23.6833 74.8422 23.5886 75.0858 23.5886C75.2245 23.5886 75.3651 23.6111 75.5076 23.6561V23.0094C75.3989 22.9607 75.2583 22.9363 75.0858 22.9363C74.9021 22.9363 74.7438 22.9813 74.6107 23.0713C74.4776 23.1613 74.3754 23.2662 74.3042 23.3862V23.0376H73.6182V26.2822H74.3323ZM77.0427 26.3834C77.4513 26.3834 77.7672 26.2906 77.9902 26.105C78.2133 25.9195 78.3248 25.6936 78.3248 25.4274C78.3248 24.9963 77.9912 24.6739 77.3239 24.4602C77.3051 24.4527 77.2751 24.4434 77.2339 24.4321C77.0765 24.3796 76.9546 24.3365 76.8684 24.3028C76.7822 24.269 76.6988 24.2156 76.6182 24.1425C76.5376 24.0694 76.4973 23.986 76.4973 23.8923C76.4973 23.7798 76.5432 23.6889 76.635 23.6196C76.7269 23.5502 76.859 23.5155 77.0315 23.5155C77.3464 23.5155 77.6144 23.6674 77.8356 23.971L78.3079 23.6842C78.1917 23.4668 78.0155 23.2878 77.7794 23.1472C77.5432 23.0066 77.292 22.9363 77.0259 22.9363C76.6697 22.9363 76.3717 23.0226 76.1318 23.195C75.8918 23.3675 75.7719 23.5961 75.7719 23.881C75.7719 24.0272 75.7981 24.1556 75.8506 24.2662C75.9031 24.3768 75.9799 24.4687 76.0812 24.5418C76.1824 24.6149 76.2789 24.673 76.3707 24.7161C76.4626 24.7592 76.576 24.8033 76.711 24.8482C76.7259 24.852 76.7503 24.8595 76.7841 24.8707C76.9715 24.9307 77.1121 24.9785 77.2058 25.0141C77.2995 25.0497 77.3885 25.1032 77.4729 25.1744C77.5572 25.2456 77.5994 25.3281 77.5994 25.4218C77.5994 25.538 77.5479 25.6308 77.4448 25.7002C77.3417 25.7695 77.202 25.8042 77.0259 25.8042C76.666 25.8042 76.3736 25.6392 76.1486 25.3093L75.6369 25.6074C75.7681 25.8473 75.9565 26.0366 76.202 26.1753C76.4476 26.314 76.7278 26.3834 77.0427 26.3834ZM81.6032 26.3834C81.8281 26.3834 82.0296 26.3459 82.2077 26.2709C82.3857 26.1959 82.5291 26.0994 82.6378 25.9813C82.7465 25.8632 82.8365 25.7264 82.9077 25.5708C82.979 25.4152 83.0286 25.2625 83.0568 25.1125C83.0849 24.9626 83.0989 24.8126 83.0989 24.6627C83.0989 24.1791 82.9715 23.7705 82.7166 23.4368C82.4616 23.1032 82.0905 22.9363 81.6032 22.9363C81.1121 22.9363 80.7391 23.1032 80.4841 23.4368C80.2292 23.7705 80.1018 24.1791 80.1018 24.6627C80.1018 24.8201 80.1158 24.9748 80.1439 25.1266C80.172 25.2784 80.2227 25.4321 80.2958 25.5877C80.3689 25.7433 80.4607 25.8782 80.5713 25.9926C80.6819 26.1069 80.8262 26.2006 81.0043 26.2737C81.1824 26.3468 81.382 26.3834 81.6032 26.3834ZM81.6032 25.7761C81.397 25.7761 81.217 25.6842 81.0633 25.5005C80.9096 25.3168 80.8328 25.0376 80.8328 24.6627C80.8328 24.2803 80.9106 23.9982 81.0661 23.8164C81.2217 23.6346 81.4007 23.5437 81.6032 23.5437C81.8056 23.5437 81.9837 23.6346 82.1374 23.8164C82.2911 23.9982 82.3679 24.2803 82.3679 24.6627C82.3679 25.0376 82.2911 25.3168 82.1374 25.5005C81.9837 25.6842 81.8056 25.7761 81.6032 25.7761ZM84.6453 26.2822V23.6449H85.3201V23.0376H84.6453V22.7395C84.6453 22.5821 84.6725 22.4677 84.7269 22.3965C84.7812 22.3253 84.8665 22.2897 84.9827 22.2897H85.3932V21.688H84.8815C84.5778 21.688 84.3426 21.7714 84.1758 21.9382C84.009 22.105 83.9255 22.3553 83.9255 22.6889V23.0376H83.4307V23.6449H83.9255V26.2822H84.6453ZM87.3951 27.6092C87.6762 27.6092 87.9115 27.5418 88.1008 27.4068C88.2901 27.2718 88.4447 27.0394 88.5647 26.7095L89.9087 23.0376H89.1326L88.6209 24.7077C88.501 25.1388 88.4316 25.3881 88.4129 25.4555H88.3904C88.3416 25.2644 88.2704 25.0151 88.1767 24.7077L87.62 23.0376H86.8384L88.053 26.2034L87.9461 26.524C87.8824 26.7039 87.7971 26.8304 87.6903 26.9035C87.5835 26.9766 87.4457 27.0132 87.277 27.0132H87.1758V27.6092H87.3951ZM91.6519 26.3834C91.8768 26.3834 92.0783 26.3459 92.2563 26.2709C92.4344 26.1959 92.5778 26.0994 92.6865 25.9813C92.7952 25.8632 92.8852 25.7264 92.9564 25.5708C93.0277 25.4152 93.0773 25.2625 93.1055 25.1125C93.1336 24.9626 93.1476 24.8126 93.1476 24.6627C93.1476 24.1791 93.0202 23.7705 92.7653 23.4368C92.5103 23.1032 92.1392 22.9363 91.6519 22.9363C91.1608 22.9363 90.7878 23.1032 90.5328 23.4368C90.2779 23.7705 90.1505 24.1791 90.1505 24.6627C90.1505 24.8201 90.1645 24.9748 90.1926 25.1266C90.2207 25.2784 90.2714 25.4321 90.3445 25.5877C90.4176 25.7433 90.5094 25.8782 90.62 25.9926C90.7306 26.1069 90.8749 26.2006 91.053 26.2737C91.231 26.3468 91.4307 26.3834 91.6519 26.3834ZM91.6519 25.7761C91.4457 25.7761 91.2657 25.6842 91.112 25.5005C90.9583 25.3168 90.8815 25.0376 90.8815 24.6627C90.8815 24.2803 90.9593 23.9982 91.1148 23.8164C91.2704 23.6346 91.4494 23.5437 91.6519 23.5437C91.8543 23.5437 92.0324 23.6346 92.1861 23.8164C92.3398 23.9982 92.4166 24.2803 92.4166 24.6627C92.4166 25.0376 92.3398 25.3168 92.1861 25.5005C92.0324 25.6842 91.8543 25.7761 91.6519 25.7761ZM94.784 26.3834C95.0052 26.3834 95.1898 26.3328 95.3379 26.2316C95.486 26.1303 95.5862 26.0216 95.6387 25.9054H95.6443V26.2822H96.3304V23.0376H95.6218V24.8539C95.6218 25.105 95.5619 25.3215 95.4419 25.5033C95.3219 25.6852 95.1551 25.7761 94.9414 25.7761C94.5853 25.7761 94.4072 25.523 94.4072 25.0169V23.0376H93.6931V25.1069C93.6931 25.3506 93.7268 25.5605 93.7943 25.7367C93.8618 25.9129 93.9518 26.045 94.0642 26.1331C94.1767 26.2212 94.292 26.285 94.41 26.3243C94.5281 26.3637 94.6528 26.3834 94.784 26.3834ZM97.8205 26.2822V24.6289C97.8205 24.314 97.8852 24.0619 98.0145 23.8726C98.1439 23.6833 98.3304 23.5886 98.574 23.5886C98.7127 23.5886 98.8533 23.6111 98.9958 23.6561V23.0094C98.8871 22.9607 98.7465 22.9363 98.574 22.9363C98.3903 22.9363 98.232 22.9813 98.0989 23.0713C97.9658 23.1613 97.8636 23.2662 97.7924 23.3862V23.0376H97.1064V26.2822H97.8205ZM101.543 26.2822V21.688H100.835V26.2822H101.543ZM103.179 22.554V21.7723H102.415V22.554H103.179ZM103.151 26.2822V23.0376H102.448V26.2822H103.151ZM104.956 26.2822V23.6449H105.631V23.0376H104.956V22.7395C104.956 22.5821 104.984 22.4677 105.038 22.3965C105.092 22.3253 105.178 22.2897 105.294 22.2897H105.704V21.688H105.193C104.889 21.688 104.654 21.7714 104.487 21.9382C104.32 22.105 104.237 22.3553 104.237 22.6889V23.0376H103.742V23.6449H104.237V26.2822H104.956ZM107.447 26.3834C107.8 26.3834 108.094 26.3028 108.33 26.1416C108.567 25.9804 108.737 25.7798 108.842 25.5399L108.246 25.3375C108.175 25.4762 108.071 25.5896 107.934 25.6777C107.797 25.7658 107.639 25.8098 107.459 25.8098C107.2 25.8098 106.997 25.7208 106.849 25.5427C106.701 25.3646 106.626 25.1519 106.626 24.9045H108.876C108.887 24.8108 108.893 24.7152 108.893 24.6177C108.893 24.1191 108.754 23.7142 108.477 23.4031C108.199 23.0919 107.847 22.9363 107.419 22.9363C106.985 22.9363 106.624 23.091 106.337 23.4003C106.05 23.7095 105.907 24.1247 105.907 24.6458C105.907 25.1744 106.05 25.5961 106.337 25.911C106.624 26.2259 106.994 26.3834 107.447 26.3834ZM108.167 24.404H106.638C106.641 24.1641 106.714 23.9551 106.854 23.777C106.995 23.5989 107.183 23.5099 107.419 23.5099C107.656 23.5099 107.839 23.5971 107.97 23.7714C108.102 23.9457 108.167 24.1566 108.167 24.404Z" fill="white"/>
<path d="M6.51604 3.64186L6.51604 26.0371C6.51593 26.2515 6.40555 26.4497 6.22584 26.5584C6.04613 26.6672 5.82388 26.6701 5.64152 26.5661L0.341372 23.5397C0.154298 23.4331 0.0381959 23.2306 0.0380859 23.0107L0.0380859 0.615473C0.0381931 0.401146 0.148571 0.202858 0.328285 0.0941466C0.507998 -0.0145649 0.730248 -0.0174872 0.91261 0.0864614L6.21275 3.11285C6.39983 3.21948 6.51593 3.42199 6.51604 3.64186Z" fill="white"/>
<path d="M15.1528 3.64186L15.1528 26.0371C15.1527 26.2515 15.0423 26.4497 14.8626 26.5584C14.6828 26.6672 14.4606 26.6701 14.2782 26.5661L8.97809 23.5397C8.79102 23.4331 8.67491 23.2306 8.6748 23.0107L8.6748 0.615473C8.67491 0.401146 8.78529 0.202858 8.965 0.0941466C9.14472 -0.0145649 9.36697 -0.0174872 9.54933 0.0864614L14.8495 3.11285C15.0365 3.21948 15.1526 3.42199 15.1528 3.64186Z" fill="white"/>
<path d="M23.7905 3.64186L23.7905 26.0371C23.7903 26.2515 23.68 26.4497 23.5003 26.5584C23.3205 26.6672 23.0983 26.6701 22.9159 26.5661L17.6158 23.5397C17.4287 23.4331 17.3126 23.2306 17.3125 23.0107L17.3125 0.615473C17.3126 0.401146 17.423 0.202858 17.6027 0.0941466C17.7824 -0.0145649 18.0047 -0.0174872 18.187 0.0864614L23.4872 3.11285C23.6742 3.21948 23.7903 3.42199 23.7905 3.64186Z" fill="white"/>
</g>
</svg>
