<svg width="45" height="45" viewBox="0 0 45 45" fill="none" xmlns="http://www.w3.org/2000/svg">
<circle cx="22.5" cy="22.5" r="21.5" transform="rotate(-180 22.5 22.5)" fill="white" stroke="#8F7CF6" stroke-width="2"/>
<path fill-rule="evenodd" clip-rule="evenodd" d="M13.3781 22.2079C12.969 22.6043 12.969 23.247 13.3781 23.6434L18.9654 29.0569C19.3746 29.4533 20.0379 29.4533 20.447 29.0569C20.8561 28.6605 20.8561 28.0178 20.447 27.6214L16.6481 23.9407L30.8808 23.9407C31.4594 23.9407 31.9284 23.4862 31.9284 22.9256C31.9284 22.3651 31.4594 21.9106 30.8808 21.9106L16.6481 21.9106L20.447 18.2298C20.8561 17.8335 20.8561 17.1908 20.447 16.7944C20.0379 16.398 19.3746 16.398 18.9654 16.7944L13.3781 22.2079Z" fill="#8F7CF6"/>
</svg>
