<svg width="60" height="60" viewBox="0 0 60 60" fill="none" xmlns="http://www.w3.org/2000/svg">
<path fill-rule="evenodd" clip-rule="evenodd" d="M53.2816 25.753C52.4229 25.7563 51.5863 26.0299 50.8868 26.5362C50.1872 27.0426 49.6591 27.7568 49.3751 28.5808H41.0495C41.0029 28.5785 40.9562 28.5833 40.911 28.5949L36.5335 20.8624C36.5699 20.8232 36.6024 20.7805 36.6305 20.7349L40.8279 13.3981C41.0827 13.4548 41.3428 13.4832 41.6036 13.4827C42.518 13.4784 43.4057 13.1687 44.1301 12.6014C44.8546 12.0341 45.3757 11.2405 45.6134 10.3427C45.8511 9.44487 45.7921 8.49251 45.4456 7.63207C45.099 6.77164 44.4841 6.05078 43.6954 5.58035C43.0616 5.20066 42.3392 5.00075 41.6036 5.00142C40.8767 5.0027 40.1628 5.19783 39.5332 5.56735C38.9037 5.93687 38.3804 6.46786 38.0157 7.10728C37.5845 7.8654 37.3931 8.74004 37.4675 9.61254C37.5418 10.4851 37.8783 11.3132 38.4313 11.9846L34.2339 19.3213C34.2062 19.352 34.1912 19.3924 34.1924 19.434H25.2711C25.2634 19.3944 25.2494 19.3563 25.2296 19.3213L21.046 11.9846C21.4403 11.4953 21.7283 10.9267 21.891 10.3161C22.0532 9.68898 22.0716 9.03239 21.945 8.39688C21.8184 7.76137 21.55 7.16387 21.1607 6.65037C20.7713 6.13687 20.2712 5.72107 19.699 5.43495C19.1267 5.14883 18.4976 5.00003 17.8599 5C17.1242 4.99933 16.4019 5.19924 15.7681 5.57893C14.9778 6.04964 14.3619 6.77169 14.0153 7.63369C13.6686 8.49568 13.6106 9.44971 13.8501 10.3486C14.0896 11.2474 14.6133 12.0412 15.3405 12.6073C16.0677 13.1735 16.9579 13.4806 17.8737 13.4812C18.13 13.4817 18.3855 13.4534 18.6356 13.3967L22.833 20.7335C22.8578 20.7891 22.8959 20.8375 22.9439 20.8743L18.5664 28.5942C18.5165 28.5819 18.4652 28.5772 18.414 28.5801H10.1023C9.77436 27.637 9.12909 26.8421 8.28054 26.3359C7.43199 25.8298 6.43478 25.6449 5.46517 25.8141C4.49556 25.9833 3.61598 26.4955 2.98188 27.2604C2.34778 28.0252 2 28.9933 2 29.9937C2 30.994 2.34778 31.9621 2.98188 32.727C3.61598 33.4918 4.49556 34.0041 5.46517 34.1732C6.43478 34.3424 7.43199 34.1575 8.28054 33.6514C9.12909 33.1452 9.77436 32.3503 10.1023 31.4072H18.414C18.4652 31.4102 18.5165 31.4054 18.5664 31.3931L22.9439 39.1116C22.8955 39.148 22.8573 39.1965 22.833 39.2524L18.6356 46.6033C18.3855 46.5464 18.13 46.5178 17.8737 46.5181C16.9582 46.5196 16.0686 46.8272 15.342 47.3935C14.6154 47.9598 14.092 48.7533 13.8526 49.6519C13.6132 50.5504 13.6711 51.504 14.0172 52.3658C14.3633 53.2277 14.9786 53.9498 15.7681 54.4211C16.4019 54.8008 17.1242 55.0007 17.8599 55C18.4986 54.9994 19.1287 54.8497 19.7016 54.5625C20.2746 54.2753 20.775 53.8582 21.1644 53.3433C21.5539 52.8285 21.8219 52.2296 21.9479 51.5929C22.0738 50.9561 22.0544 50.2984 21.891 49.6705C21.732 49.0601 21.4383 48.4945 21.0322 48.0168L25.2296 40.6801C25.2495 40.6449 25.2636 40.6066 25.2711 40.5667H34.1924C34.1999 40.6066 34.214 40.6449 34.2339 40.6801L38.4313 48.0168C38.0243 48.4919 37.7346 49.0588 37.5863 49.6705C37.4414 50.2096 37.4047 50.7729 37.4785 51.3268C37.5523 51.8806 37.735 52.4137 38.0157 52.8941C38.3804 53.5336 38.9037 54.0645 39.5332 54.434C40.1628 54.8036 40.8767 54.9987 41.6036 55C42.3392 55.0007 43.0616 54.8008 43.6954 54.4211C44.4845 53.9508 45.0997 53.2299 45.4465 52.3693C45.7932 51.5087 45.8523 50.5562 45.6146 49.6581C45.3769 48.7601 44.8556 47.9663 44.1309 47.3989C43.4062 46.8316 42.5182 46.5221 41.6036 46.5181C41.3428 46.5178 41.0827 46.5464 40.8279 46.6033L36.6305 39.2524C36.6026 39.2066 36.5701 39.1639 36.5335 39.125L40.911 31.3924C40.9562 31.4041 41.0029 31.4088 41.0495 31.4065H49.3751C49.6322 32.1351 50.0813 32.7778 50.6732 33.2646C51.2651 33.7514 51.9772 34.0635 52.7316 34.1668C53.4861 34.2702 54.254 34.1609 54.9515 33.8508C55.649 33.5407 56.2493 33.0417 56.687 32.4083C57.1246 31.7749 57.3828 31.0315 57.4333 30.2591C57.4838 29.4867 57.3246 28.7151 56.9733 28.0284C56.6219 27.3417 56.0918 26.7663 55.4407 26.3651C54.7897 25.9638 54.0428 25.7521 53.2816 25.753ZM40.3984 8.53492C40.5208 8.32025 40.6966 8.14212 40.9082 8.01849C41.1197 7.89485 41.3596 7.83006 41.6036 7.83061C41.8462 7.83384 42.0838 7.90142 42.2928 8.02665C42.5018 8.15189 42.6751 8.33044 42.7954 8.54465C42.9158 8.75887 42.979 9.00133 42.979 9.24803C42.9789 9.49473 42.9155 9.73713 42.795 9.95126C42.6042 10.2686 42.3002 10.4986 41.9466 10.5934C41.5929 10.6881 41.2169 10.6403 40.8971 10.4598C40.583 10.269 40.3548 9.96061 40.2616 9.60079C40.1684 9.24097 40.2175 8.85834 40.3984 8.53492ZM18.5664 10.4577C18.2466 10.6382 17.8706 10.686 17.5169 10.5913C17.1633 10.4965 16.8593 10.2665 16.6685 9.94916C16.548 9.73502 16.4846 9.49261 16.4845 9.2459C16.4845 8.9992 16.5477 8.75676 16.668 8.54255C16.7884 8.32833 16.9617 8.14976 17.1707 8.02453C17.3797 7.89929 17.6173 7.83172 17.8599 7.82848C18.1662 7.82508 18.465 7.92505 18.7096 8.11274C18.9541 8.30042 19.1305 8.56523 19.2113 8.86575C19.2921 9.16626 19.2726 9.48551 19.1559 9.77355C19.0392 10.0616 18.8319 10.3022 18.5664 10.4577ZM6.18193 31.4114C5.90678 31.4124 5.63754 31.3303 5.4083 31.1756C5.17905 31.0209 5.00012 30.8004 4.89416 30.5422C4.7882 30.284 4.75998 29.9997 4.81307 29.7252C4.86616 29.4506 4.99817 29.1983 5.19239 29.0001C5.38661 28.8019 5.6343 28.6668 5.90409 28.6119C6.17388 28.5569 6.45364 28.5846 6.70794 28.6915C6.96223 28.7983 7.17963 28.9795 7.33259 29.2121C7.48556 29.4446 7.56721 29.7181 7.56721 29.9979C7.56685 30.3718 7.42094 30.7304 7.16136 30.9953C6.90179 31.2601 6.54966 31.4098 6.18193 31.4114ZM19.0651 51.4707C18.8745 51.7883 18.5706 52.0186 18.2169 52.1135C17.8632 52.2084 17.487 52.1606 17.1672 51.9799C17.0093 51.8862 16.8711 51.7617 16.7605 51.6136C16.6499 51.4655 16.5691 51.2966 16.5228 51.1167C16.4765 50.9368 16.4655 50.7494 16.4905 50.5651C16.5155 50.3809 16.576 50.2035 16.6685 50.0431C16.7936 49.8318 16.9704 49.657 17.1815 49.5357C17.3927 49.4144 17.6312 49.3507 17.8737 49.3508C18.1177 49.3493 18.3577 49.4138 18.5691 49.5376C18.7805 49.6614 18.9558 49.8401 19.077 50.0554C19.1982 50.2707 19.2609 50.5149 19.2588 50.7629C19.2568 51.011 19.1899 51.2541 19.0651 51.4672V51.4707ZM40.8971 49.5346C41.2165 49.3521 41.5931 49.3032 41.9473 49.3981C42.3015 49.493 42.6055 49.7243 42.795 50.0431C42.8875 50.2035 42.948 50.3809 42.973 50.5651C42.998 50.7494 42.987 50.9368 42.9407 51.1167C42.8944 51.2966 42.8136 51.4655 42.703 51.6136C42.5924 51.7617 42.4542 51.8862 42.2963 51.9799C42.0876 52.1092 41.848 52.1777 41.6036 52.1778C41.3595 52.1788 41.1195 52.1142 40.9079 51.9905C40.6962 51.8669 40.5205 51.6885 40.3984 51.4735C40.2163 51.1475 40.1664 50.7621 40.2596 50.3993C40.3527 50.0364 40.5815 49.7249 40.8971 49.5311V49.5346ZM34.1231 37.7445H25.3542L20.9768 29.9972L25.3542 22.2646H34.1231L38.5006 29.9972L34.1231 37.7445ZM53.2816 31.4114C53.0064 31.4124 52.7372 31.3303 52.5079 31.1756C52.2787 31.0209 52.0998 30.8004 51.9938 30.5422C51.8878 30.284 51.8596 29.9997 51.9127 29.7252C51.9658 29.4506 52.0978 29.1983 52.292 29.0001C52.4863 28.8019 52.7339 28.6668 53.0037 28.6119C53.2735 28.5569 53.5533 28.5846 53.8076 28.6915C54.0619 28.7983 54.2793 28.9795 54.4322 29.2121C54.5852 29.4446 54.6668 29.7181 54.6668 29.9979C54.6665 30.3718 54.5206 30.7304 54.261 30.9953C54.0014 31.2601 53.6493 31.4098 53.2816 31.4114Z" fill="#8F7CF6"/>
</svg>
