<svg width="64" height="59" viewBox="0 0 64 59" fill="none" xmlns="http://www.w3.org/2000/svg">
<path fill-rule="evenodd" clip-rule="evenodd" d="M48.9474 9.76816C49.8891 8.9981 50.8436 8.27771 51.8247 7.60365C53.296 6.59199 54.8974 5.78001 56.4158 4.85069C57.0597 4.45591 58.7234 3.40035 58.987 3.29102C61.2908 2.3495 62.599 3.87499 62.9444 4.34255C63.1182 4.56485 64.8237 6.89315 62.3466 9.02418C59.3191 11.632 56.0119 13.8054 52.5206 15.4945C49.9772 17.6727 47.6668 20.2304 45.7959 22.9321C38.3565 33.68 42.6934 43.5627 48.5634 53.5995C49.4751 55.138 48.9843 57.1298 47.4748 58.1018C45.9535 59.0805 43.935 58.7022 42.9102 57.2377C39.1316 51.9123 28.84 44.5174 22.1093 43.7769C20.7005 43.6225 18.061 44.5745 15.3907 45.364C11.6816 46.4556 7.92335 47.3798 5.97327 47.121C5.6737 47.0861 2.43931 46.4291 1.80074 46.0463C0.27646 45.1203 0.088657 43.788 0.133898 42.9444C0.179133 42.1008 0.563976 40.955 1.7033 39.9333C2.89383 38.8652 5.81919 37.517 6.38999 37.1302C8.46017 35.7265 12.4615 32.8661 15.6106 29.9008C17.3059 28.3036 18.8312 26.762 19.2554 25.4136C20.8251 20.4219 17.5119 15.774 14.5857 11.9378C14.2543 11.4946 13.9112 11.0582 13.5805 10.6161C12.11 9.21427 10.7085 7.63427 9.4007 5.86522C7.42212 3.19586 9.80844 1.20463 9.96932 1.07865C10.3249 0.80428 12.2002 -0.532641 14.2314 1.17034C14.4481 1.3589 15.8289 2.87529 16.364 3.45744C17.1085 4.26937 17.812 5.11855 18.5059 5.9779C27.1676 13.9992 38.8183 14.3794 48.9474 9.76816ZM40.233 19.2117C34.6472 27.3093 34.1329 35.0399 36.2486 42.6432L36.248 42.642C31.6872 39.7493 26.7908 37.546 22.8974 37.1215C21.4219 36.9591 18.9293 37.4621 16.2185 38.1808C18.2118 36.5885 20.2772 34.7964 21.9189 33.0512C23.7937 31.0618 25.1453 29.0545 25.675 27.3746C26.6934 24.1337 26.4604 20.9317 25.5108 17.8889C30.2517 19.4681 35.2588 19.8572 40.233 19.2117Z" fill="#F5F3FE"/>
</svg>
