<svg width="130" height="18" viewBox="0 0 130 18" fill="none" xmlns="http://www.w3.org/2000/svg">
<path fill-rule="evenodd" clip-rule="evenodd" d="M34.6494 10.6001C29.0643 12.2268 22.616 13.8456 16.4127 14.2498C11.1106 14.5948 5.98927 14.0589 1.7974 11.779C1.20649 11.458 0.466518 11.6787 0.146952 12.2728C-0.173102 12.8664 0.0470851 13.6097 0.637991 13.9312C5.21081 16.4177 10.7866 17.068 16.57 16.6912C22.8849 16.2802 29.4496 14.6506 35.1468 13.0004C35.8079 14.3457 37.1767 15.5999 39.5881 16.5253C43.2919 17.9469 48.3489 17.9293 53.6763 17.1282C61.4029 15.9669 69.7146 13.1977 75.0585 11.2299C75.2777 11.1497 75.6041 11.022 76.0036 10.8536C76.1254 11.1238 76.2618 11.39 76.4128 11.6513C77.7232 13.9288 80.042 15.7702 82.4047 16.4279C97.3892 20.5983 114.878 15.6014 129.117 11.5348C129.76 11.3503 130.135 10.6731 129.955 10.0237C129.77 9.3743 129.097 8.997 128.45 9.18149C114.61 13.1345 97.6182 18.1221 83.0526 14.0697C81.2599 13.5705 79.5159 12.1553 78.5221 10.4269C78.4101 10.2341 78.3127 10.0369 78.2201 9.83674C80.1833 8.85949 82.4924 7.49712 83.7346 6.03882C85.0109 4.54383 85.3275 2.94803 84.2168 1.4408C83.262 0.152313 81.8152 0.0426937 80.3099 0.71067C78.6877 1.42611 77.0168 3.09872 76.4761 3.88366C75.4628 5.34978 75.1413 6.94022 75.3265 8.491C74.8491 8.69359 74.4613 8.84431 74.2221 8.93239C68.9951 10.8566 60.8709 13.5725 53.3158 14.7083C48.4546 15.4394 43.837 15.5368 40.4572 14.24C39.0157 13.6865 38.0633 13.0406 37.5465 12.2909C38.5665 11.9845 39.5501 11.6831 40.4898 11.3954C42.3483 10.8262 46.2176 9.88422 48.9822 8.20522C51.1807 6.87025 52.6713 5.05423 52.5846 2.77773C52.5403 1.60816 51.8666 0.827613 50.7943 0.390125C49.1921 -0.263171 46.4213 0.0529492 45.3895 0.273161C42.2601 0.93967 38.0833 3.6987 36.0168 6.8076C35.1921 8.04813 34.7016 9.34591 34.6494 10.6001ZM37.2201 9.83575C38.1042 9.56856 38.9587 9.30626 39.7795 9.05473C41.5143 8.52329 45.1405 7.67913 47.7219 6.11122C49.0889 5.28127 50.2049 4.2869 50.1508 2.87118C50.1465 2.76108 50.0378 2.72977 49.9418 2.68475C49.7933 2.61575 49.6233 2.56827 49.442 2.53108C48.2159 2.27954 46.5689 2.52275 45.8947 2.66662C43.269 3.22596 39.7761 5.55776 38.0424 8.16654C37.676 8.71756 37.3842 9.27886 37.2201 9.83575ZM77.7329 7.36449C78.8777 6.77286 80.0761 6.0574 81.0212 5.27883C81.5229 4.86532 81.9468 4.44008 82.2147 3.99868C82.4388 3.63362 82.5264 3.25972 82.2585 2.89857C82.1513 2.75225 81.9906 2.74934 81.825 2.77674C81.6496 2.8061 81.4693 2.86872 81.2891 2.94947C80.1005 3.47504 78.8729 4.70285 78.4783 5.27883C78.0155 5.9468 77.7865 6.65345 77.7329 7.36449Z" fill="white"/>
</svg>
