<svg width="147" height="136" viewBox="0 0 147 136" fill="none" xmlns="http://www.w3.org/2000/svg">
<path fill-rule="evenodd" clip-rule="evenodd" d="M117.572 53.754C119.946 53.354 122.294 53.0527 124.642 52.858C128.163 52.5647 131.712 52.7461 135.233 52.6421C136.727 52.5967 140.622 52.4181 141.183 52.49C146.065 53.1434 146.812 57.0818 146.945 58.2338C147.025 58.7911 147.665 64.5135 141.316 65.7481C133.552 67.2627 125.736 67.7481 118.079 67.2121C111.569 68.4627 105.086 70.6013 99.2172 73.4252C75.8734 84.6621 73.6057 106.074 73.8191 129.274C73.8725 132.841 71.0712 135.804 67.523 135.991C63.9481 136.177 60.8534 133.522 60.5332 129.97C59.2793 117.002 48.8745 93.9949 38.043 86.0406C35.7754 84.3767 30.3062 83.4088 24.9438 82.1288C17.5004 80.3422 10.1373 78.217 7.04255 75.8358C6.56233 75.4785 1.65338 71.1346 0.933057 69.8386C-0.774371 66.7241 0.212918 64.2309 1.11998 62.815C2.02705 61.399 3.81451 59.7964 6.77583 59.1564C9.87054 58.4871 16.2202 59.0524 17.5808 58.9484C22.5163 58.5698 32.2006 57.5832 40.5243 55.57C45.0063 54.4847 49.1415 53.3274 51.1957 51.4128C58.7991 44.3251 57.6785 32.9922 56.4246 23.4486C56.2912 22.3526 56.1311 21.2567 55.9977 20.1634C54.8505 16.2782 53.9969 12.1529 53.49 7.79313C52.7164 1.20939 58.7724 0.126843 59.1726 0.0681786C60.053 -0.0544831 64.5882 -0.510512 66.4024 4.45195C66.5891 4.99326 67.4696 8.98781 67.8164 10.5264C68.2966 12.6703 68.67 14.8382 69.0168 17.0141C76.0066 39.4905 95.6422 51.6981 117.572 53.754ZM93.321 61.4684C75.7665 69.9534 67.2828 82.8301 63.4411 98.0935L63.4411 98.0909C58.4522 88.5606 52.2093 79.8915 45.9398 75.2971C43.5654 73.5531 38.7901 71.9532 33.4277 70.5106C38.4166 69.7293 43.7258 68.6734 48.2611 67.2788C53.4368 65.6922 57.7317 63.5562 60.2929 61.1723C65.2284 56.5698 67.9764 50.794 69.337 44.5836C75.9266 52.018 84.1435 57.6552 93.321 61.4684Z" fill="#FCD2D2"/>
</svg>
