<svg width="60" height="60" viewBox="0 0 60 60" fill="none" xmlns="http://www.w3.org/2000/svg">
<path fill-rule="evenodd" clip-rule="evenodd" d="M30.3875 5.01253C30.25 5.00003 30.125 5.00002 30 5.00002C25.8063 4.99421 21.6788 6.04611 17.9995 8.0584C14.3201 10.0707 11.2076 12.9784 8.94998 16.5125C8.85077 16.6502 8.78065 16.8067 8.74389 16.9724C8.70712 17.1381 8.70447 17.3095 8.73612 17.4763C8.76778 17.643 8.83306 17.8016 8.92798 17.9423C9.02291 18.083 9.1455 18.2029 9.28826 18.2946C9.43103 18.3864 9.59098 18.4481 9.75839 18.4761C9.92579 18.504 10.0971 18.4976 10.262 18.4572C10.4268 18.4167 10.5817 18.3432 10.7172 18.2409C10.8526 18.1387 10.9659 18.0099 11.05 17.8625C11.8543 16.6157 12.7751 15.4479 13.8 14.375H21.1625C20.4581 16.3672 19.927 18.4165 19.575 20.5H19.5625C18.2555 20.8185 16.9194 21.0027 15.575 21.05C15.4053 21.0597 15.2392 21.1034 15.0867 21.1785C14.9343 21.2537 14.7985 21.3588 14.6875 21.4875C14.5724 21.6152 14.486 21.766 14.4343 21.9299C14.3825 22.0938 14.3666 22.2669 14.3875 22.4375C14.5943 24.5614 14.9367 26.6698 15.4125 28.75H7.54996C7.61475 27.2814 7.8326 25.8235 8.19997 24.4C8.24416 24.2406 8.25617 24.074 8.23529 23.9099C8.21442 23.7458 8.16107 23.5874 8.07838 23.4442C7.99568 23.3009 7.88529 23.1755 7.75363 23.0753C7.62197 22.9751 7.47169 22.9022 7.31154 22.8607C7.1514 22.8192 6.98459 22.81 6.82086 22.8337C6.65713 22.8573 6.49975 22.9133 6.35789 22.9984C6.21603 23.0835 6.09253 23.196 5.9946 23.3294C5.89666 23.4627 5.82625 23.6142 5.78748 23.775C4.84605 27.436 4.74734 31.2628 5.49882 34.9674C6.2503 38.672 7.83237 42.1579 10.1259 45.1626C12.4195 48.1674 15.3648 50.6127 18.7401 52.3145C22.1154 54.0163 25.8328 54.9302 29.6125 54.9875C29.7375 55 29.875 55 30 55C30.125 55 30.25 55 30.3875 54.9875C36.9461 54.8838 43.201 52.2055 47.8025 47.5308C52.4039 42.856 54.9829 36.5595 54.9829 30C54.9829 23.4405 52.4039 17.144 47.8025 12.4693C43.201 7.79449 36.9461 5.11626 30.3875 5.01253ZM52.4625 28.75H44.5875C45.0676 26.6701 45.4142 24.5617 45.625 22.4375C45.6419 22.2667 45.624 22.0942 45.5721 21.9306C45.5202 21.767 45.4356 21.6156 45.3233 21.4858C45.211 21.3559 45.0734 21.2503 44.919 21.1754C44.7645 21.1005 44.5964 21.0578 44.4249 21.05C43.0805 21.0027 41.7445 20.8185 40.4375 20.5H40.425C40.0729 18.4165 39.5418 16.3672 38.8375 14.375H46.1624C49.932 18.247 52.1703 23.3541 52.4625 28.75ZM43.325 11.875H37.8125C37.2207 10.5626 36.4692 9.32828 35.575 8.20002C38.371 8.91418 41.0026 10.1621 43.325 11.875ZM29.725 7.51253C29.9079 7.49586 30.092 7.49586 30.275 7.51253C33.1375 7.80003 36.175 12.4125 37.7125 19.6375C35.0783 18.6186 32.7559 16.9295 30.975 14.7375C30.8595 14.5892 30.7115 14.4693 30.5425 14.3869C30.3735 14.3046 30.1879 14.2621 30 14.2625C29.8122 14.2634 29.627 14.3065 29.4583 14.3888C29.2895 14.471 29.1414 14.5902 29.025 14.7375C27.244 16.9295 24.9216 18.6186 22.2875 19.6375C23.825 12.4125 26.8625 7.80003 29.725 7.51253ZM16.6625 11.875C18.9885 10.15 21.6299 8.89724 24.4375 8.18753C23.5407 9.32093 22.7852 10.5592 22.1875 11.875H16.6625ZM19.1625 23.15C20.0463 22.9838 20.9188 22.7626 21.775 22.4875C24.8985 21.5181 27.7274 19.777 30 17.425C32.2726 19.777 35.1014 21.5181 38.225 22.4875C39.0811 22.7626 39.9537 22.9838 40.8375 23.15C41.5375 23.2875 42.2625 23.3875 42.9875 23.4625C42.7667 25.2418 42.4453 27.0071 42.0249 28.75C41.8125 29.6375 41.575 30.475 41.3125 31.25C41.2889 31.3352 41.2597 31.4187 41.225 31.5C40.5364 33.6846 39.5162 35.7504 38.2 37.625C36.2729 40.4637 33.3437 42.4686 30 43.2375C26.6532 42.4604 23.7214 40.4523 21.7875 37.6125C20.478 35.7357 19.4622 33.6703 18.775 31.4875C18.7403 31.4105 18.7111 31.3311 18.6875 31.25C18.4375 30.475 18.2 29.6375 17.9875 28.75C17.5565 27.0087 17.231 25.243 17.0125 23.4625C17.7375 23.3875 18.4625 23.2875 19.1625 23.15ZM7.53747 31.25H16.075C16.8136 33.8058 17.9301 36.2368 19.3875 38.4625C19.7542 40.9002 20.3485 43.2982 21.1625 45.625H13.8375C10.0679 41.7531 7.82966 36.646 7.53747 31.25ZM16.6875 48.125H22.1875C22.7751 49.433 23.5224 50.6632 24.4125 51.7875C21.6239 51.0804 19 49.8363 16.6875 48.125ZM30 52.5C27.3125 52.5 24.425 48.6 22.725 42.225C24.7424 43.9266 27.1317 45.1298 29.7 45.7375C29.8968 45.7875 30.1031 45.7875 30.3 45.7375C32.8664 45.1316 35.2553 43.933 37.275 42.2375C35.575 48.6 32.6875 52.5 30 52.5ZM35.5875 51.8C36.4731 50.6681 37.22 49.4344 37.8125 48.125H43.325C41.0071 49.8378 38.3796 51.0858 35.5875 51.8ZM46.1624 45.625H38.8375C39.653 43.308 40.2432 40.9178 40.6 38.4875C42.0665 36.2562 43.1875 33.8162 43.925 31.25H52.4625C52.1703 36.646 49.932 41.7531 46.1624 45.625Z" fill="#14B082"/>
</svg>
