<svg width="60" height="60" viewBox="0 0 60 60" fill="none" xmlns="http://www.w3.org/2000/svg">
<path fill-rule="evenodd" clip-rule="evenodd" d="M54.9256 12.5499C54.9105 11.8078 54.6034 11.1015 54.0709 10.5844C53.5384 10.0672 52.8235 9.78088 52.0812 9.78745C51.4859 9.7912 50.9063 9.97894 50.4219 10.3249C48.7868 11.3857 46.8705 11.9301 44.922 11.8874C42.1895 11.8749 38.622 10.8624 37.5614 7.98747C37.2719 7.13 36.7247 6.38285 35.9945 5.84813C35.2644 5.31341 34.3869 5.0172 33.4821 5H26.4821C25.5757 5.0169 24.6965 5.3128 23.9643 5.84739C23.2321 6.38197 22.6825 7.12926 22.3903 7.98747C21.3278 10.8624 17.7616 11.8874 15.0291 11.8874C13.0808 11.9279 11.1651 11.3837 9.52917 10.3249C9.04499 9.97888 8.46558 9.79112 7.87044 9.78745C7.12808 9.78072 6.41299 10.067 5.88037 10.5842C5.34775 11.1013 5.04058 11.8077 5.02547 12.5499C4.47672 37.5122 12.7979 51.787 29.7527 54.987C29.827 54.9974 29.9021 55.0015 29.9771 54.9995C30.0564 55.0012 30.1358 54.9971 30.2146 54.987C34.3406 54.2714 38.2563 52.6491 41.6795 50.237C42.3459 50.3625 43.0226 50.4253 43.7007 50.4245C46.6801 50.4173 49.5351 49.229 51.6398 47.1202C53.7445 45.0114 54.9272 42.1541 54.9287 39.1746C54.9336 36.8547 54.2141 34.5911 52.8706 32.6997C54.4156 27.0248 55.1006 20.3082 54.9256 12.5499ZM44.4963 47.8746C44.2316 47.9103 43.9647 47.927 43.6976 47.9246C42.8036 47.9288 41.9149 47.7896 41.0651 47.5121C39.9212 47.1528 38.8646 46.5594 37.9625 45.7696C37.0604 44.9799 36.3325 44.011 35.8251 42.9246C35.4428 42.1545 35.1894 41.3268 35.0752 40.4746C35 40.0454 34.9623 39.6104 34.9627 39.1746C34.9646 37.3128 35.5592 35.4999 36.6604 33.9986C37.7617 32.4974 39.3123 31.3857 41.0876 30.8247H41.1001C41.9393 30.5583 42.8146 30.4234 43.6951 30.4247H43.8076C44.9918 30.4409 46.1604 30.6986 47.2415 31.1823C48.3226 31.6659 49.2936 32.3651 50.095 33.2372C50.8512 34.043 51.4406 34.9903 51.8294 36.0247C52.2265 37.0273 52.4297 38.0962 52.4281 39.1746C52.4287 41.3526 51.6157 43.4523 50.1483 45.0618C48.6809 46.6713 46.6651 47.6745 44.4963 47.8746ZM50.8338 30.4997C49.0114 28.9907 46.7577 28.0979 44.3963 27.9498C44.773 26.1879 45.0478 24.4058 45.2194 22.6123C45.2403 22.4437 45.2243 22.2726 45.1726 22.1107C45.1209 21.9489 45.0348 21.8002 44.92 21.6748C44.8112 21.544 44.6762 21.4375 44.5237 21.3621C44.3711 21.2868 44.2044 21.2443 44.0344 21.2373C38.6595 21.0123 33.8914 18.7749 30.9471 15.0874C30.8271 14.9464 30.678 14.8331 30.51 14.7555C30.342 14.6778 30.1591 14.6376 29.9739 14.6376C29.7888 14.6376 29.606 14.6778 29.4379 14.7555C29.2699 14.8331 29.1208 14.9464 29.0009 15.0874C26.0565 18.7749 21.2909 21.0123 15.9141 21.2373C15.5826 21.2505 15.2699 21.3948 15.0448 21.6386C14.8197 21.8823 14.7006 22.2055 14.7138 22.537C14.727 22.8685 14.8713 23.1812 15.1151 23.4063C15.3588 23.6314 15.682 23.7505 16.0135 23.7373C21.5653 23.5123 26.5684 21.3498 29.9739 17.7624C33.3395 21.1742 37.8213 23.2597 42.5988 23.6373C42.4182 25.1289 42.1601 26.61 41.8257 28.0748C39.2077 28.5247 36.8329 29.8854 35.1208 31.9164C33.4087 33.9475 32.4694 36.5182 32.4689 39.1746C32.4682 40.0885 32.5771 40.9992 32.7933 41.8871C32.9902 42.6845 33.2789 43.4564 33.6539 44.1871C34.7319 46.3565 36.4825 48.1192 38.6445 49.2121C35.9726 50.8121 33.0359 51.9212 29.9733 52.487C14.566 49.462 7.00545 36.0497 7.51732 12.6124C7.5212 12.549 7.54241 12.488 7.57862 12.4358C7.61483 12.3836 7.66464 12.3424 7.72266 12.3166C7.78068 12.2909 7.84466 12.2815 7.90763 12.2896C7.97061 12.2976 8.03019 12.3228 8.07983 12.3624C10.1351 13.7309 12.5599 14.4375 15.0285 14.3874C19.6822 14.3874 23.4871 12.2124 24.7346 8.84996C24.8524 8.47306 25.0831 8.14145 25.3956 7.89999C25.708 7.65853 26.0871 7.51889 26.4815 7.49997H33.4814C33.8737 7.52107 34.2501 7.66174 34.56 7.90308C34.8699 8.14442 35.0986 8.47485 35.2152 8.84996C35.8907 10.5756 37.1606 12.003 38.7958 12.8749C40.6721 13.9007 42.7826 14.4219 44.9207 14.3874C47.3895 14.4375 49.8145 13.7308 51.87 12.3624C51.9299 12.3139 52.0047 12.2874 52.0819 12.2874C52.171 12.2852 52.2575 12.318 52.3228 12.3787C52.3881 12.4395 52.427 12.5233 52.4312 12.6124C52.654 18.6183 52.1173 24.6283 50.8338 30.4997ZM33.6546 44.1871C32.5739 44.7075 31.4403 45.1099 30.2733 45.3871C30.0769 45.4371 29.871 45.4371 29.6746 45.3871C22.389 43.6121 17.8103 38.0997 15.6641 28.5373C15.6288 28.3775 15.6253 28.2124 15.6539 28.0512C15.6824 27.8901 15.7424 27.7362 15.8304 27.5983C15.9184 27.4604 16.0327 27.3412 16.1668 27.2474C16.3009 27.1537 16.4522 27.0873 16.6119 27.052C16.7717 27.0167 16.9368 27.0132 17.0979 27.0417C17.259 27.0703 17.4129 27.1302 17.5509 27.2183C17.6888 27.3063 17.808 27.4206 17.9018 27.5547C17.9955 27.6888 18.0619 27.84 18.0972 27.9998C20.829 40.1746 27.4165 42.2496 29.9721 42.8871C30.9453 42.6563 31.8908 42.3211 32.7921 41.8871C32.9895 42.6846 33.2789 43.4564 33.6546 44.1871ZM42.2888 44.044C41.9578 44.0436 41.6404 43.9119 41.4064 43.6777L37.8264 40.0909C37.6093 39.8535 37.4921 39.5416 37.4991 39.22C37.5061 38.8984 37.6369 38.5919 37.8641 38.3642C38.0914 38.1366 38.3977 38.0053 38.7192 37.9977C39.0408 37.9901 39.353 38.1067 39.5907 38.3234L42.2888 41.0265L47.8069 35.4966C47.9209 35.3719 48.059 35.2716 48.2129 35.2018C48.3667 35.132 48.5331 35.0942 48.702 35.0905C48.8709 35.0868 49.0388 35.1173 49.1955 35.1804C49.3523 35.2434 49.4946 35.3375 49.614 35.4571C49.7333 35.5766 49.8272 35.7191 49.8899 35.876C49.9527 36.0328 49.983 36.2008 49.979 36.3697C49.975 36.5386 49.9368 36.7049 49.8667 36.8586C49.7966 37.0123 49.6961 37.1503 49.5713 37.264L43.1707 43.6777C43.0549 43.7939 42.9172 43.8861 42.7657 43.9489C42.6141 44.0118 42.4517 44.0441 42.2876 44.044H42.2888Z" fill="#1C1C1D"/>
</svg>
