<svg width="60" height="60" viewBox="0 0 60 60" fill="none" xmlns="http://www.w3.org/2000/svg">
<path d="M42.3594 40.2275V44.773H46.9048" stroke="#F5692D" stroke-width="2.5" stroke-miterlimit="10" stroke-linecap="round" stroke-linejoin="round"/>
<path d="M42.3679 54.9995C48.0163 54.9995 52.5952 50.4206 52.5952 44.7722C52.5952 39.1238 48.0163 34.5449 42.3679 34.5449C36.7195 34.5449 32.1406 39.1238 32.1406 44.7722C32.1406 50.4206 36.7195 54.9995 42.3679 54.9995Z" stroke="#F5692D" stroke-width="2.5" stroke-miterlimit="10" stroke-linecap="round" stroke-linejoin="round"/>
<path d="M53.7273 20.9092H6" stroke="#F5692D" stroke-width="2.5" stroke-miterlimit="10" stroke-linecap="round" stroke-linejoin="round"/>
<path d="M26.4545 50.455H9.40909C8.50494 50.455 7.63783 50.0958 6.9985 49.4565C6.35917 48.8172 6 47.95 6 47.0459V12.955C6 12.0508 6.35917 11.1837 6.9985 10.5444C7.63783 9.90507 8.50494 9.5459 9.40909 9.5459H50.3182C51.2223 9.5459 52.0894 9.90507 52.7288 10.5444C53.3681 11.1837 53.7273 12.0508 53.7273 12.955V31.1504" stroke="#F5692D" stroke-width="2.5" stroke-miterlimit="10" stroke-linecap="round" stroke-linejoin="round"/>
<path d="M17.3594 5V14.0909" stroke="#F5692D" stroke-width="2.5" stroke-miterlimit="10" stroke-linecap="round" stroke-linejoin="round"/>
<path d="M42.3594 5V14.0909" stroke="#F5692D" stroke-width="2.5" stroke-miterlimit="10" stroke-linecap="round" stroke-linejoin="round"/>
</svg>
