<svg width="47" height="23" viewBox="0 0 47 23" fill="none" xmlns="http://www.w3.org/2000/svg">
<path fill-rule="evenodd" clip-rule="evenodd" d="M26.5015 4.89746C26.5015 2.68832 24.7106 0.897461 22.5015 0.897461H7.55124C3.65695 0.897461 0.5 4.05441 0.5 7.94871V7.94871C0.5 11.843 3.65695 15 7.55124 15H16.5C18.7091 15 20.5 16.7908 20.5 19V19C20.5 21.2091 22.2909 23 24.5 23H39.4502C43.3445 23 46.5015 19.843 46.5015 15.9487V15.9487C46.5015 12.0544 43.3445 8.89746 39.4502 8.89746H30.5015C28.2923 8.89746 26.5015 7.1066 26.5015 4.89746V4.89746Z" fill="#1C1C1D"/>
</svg>
