<svg width="111" height="29" viewBox="0 0 111 29" fill="none" xmlns="http://www.w3.org/2000/svg">
<g opacity="0.5">
<path d="M35.2073 18.1732V10.1516L40.9514 18.1732H44.1144L39.2686 11.7332C40.2471 11.5982 41.0315 11.3831 41.6219 11.0879C42.2124 10.7927 42.7227 10.3667 43.1529 9.81002C43.8698 8.89062 44.2283 7.76035 44.2283 6.41921C44.2283 4.70694 43.7011 3.34893 42.6468 2.34519C41.6262 1.38362 40.091 0.902832 38.0414 0.902832H32.6895V18.1732H35.2073ZM36.9406 9.81002H35.2073V3.21819H37.8769C39.0324 3.21819 39.9603 3.5113 40.6604 4.09753C41.3605 4.68375 41.7105 5.46186 41.7105 6.43187C41.7105 7.64648 41.2002 8.54901 40.1796 9.13945C39.412 9.58649 38.3324 9.81002 36.9406 9.81002ZM53.0146 18.5148C54.8618 18.5148 56.4391 17.9075 57.7465 16.6928C58.4382 16.0518 58.9865 15.2842 59.3913 14.3901C59.7962 13.496 59.9986 12.6062 59.9986 11.7205C59.9986 9.6371 59.2142 7.92061 57.6453 6.57104C56.3295 5.44077 54.7817 4.87564 53.0019 4.87564C51.8295 4.89251 50.7435 5.1561 49.744 5.66641C48.7445 6.17671 47.9242 6.88313 47.2831 7.78566C46.4565 8.94966 46.0432 10.2275 46.0432 11.6193C46.0432 12.6483 46.2836 13.6479 46.7644 14.6179C47.1524 15.4107 47.6627 16.1024 48.2953 16.6928C49.6027 17.9075 51.1758 18.5148 53.0146 18.5148ZM53.0146 16.3006C51.8 16.3006 50.7583 15.8831 49.8895 15.0481C48.9363 14.1202 48.4598 12.9984 48.4598 11.6826C48.4598 10.3667 48.9363 9.25332 49.8895 8.34236C50.7583 7.50731 51.8 7.08978 53.0146 7.08978C54.2292 7.10665 55.2793 7.52418 56.165 8.34236C57.1097 9.22801 57.5821 10.3583 57.5821 11.7332C57.5821 12.332 57.4534 12.9267 57.1962 13.5171C56.9389 14.1076 56.591 14.6179 56.1524 15.0481C55.2836 15.8831 54.2376 16.3006 53.0146 16.3006ZM68.6331 18.5148C70.2779 18.5148 71.7034 18.0087 72.9096 16.9965C73.888 16.1699 74.5881 15.1408 75.0098 13.9093H72.3149C71.9606 14.6432 71.4461 15.2252 70.7713 15.6554C70.0965 16.0855 69.3669 16.3006 68.5825 16.3006C67.3594 16.3006 66.3515 15.8072 65.5586 14.8203C64.8079 13.884 64.4325 12.8339 64.4325 11.6699C64.4325 10.6155 64.732 9.64554 65.3309 8.75988C66.0984 7.64648 67.216 7.08978 68.6837 7.08978C69.5019 7.08978 70.1914 7.27746 70.7523 7.65281C71.3133 8.02816 71.8341 8.65445 72.3149 9.53167H75.0098C74.8327 8.83158 74.5333 8.19896 74.1115 7.63383C72.7113 5.79504 70.8978 4.87564 68.671 4.87564C66.7142 4.87564 65.0905 5.58838 63.7999 7.01387C62.6106 8.32127 62.016 9.87328 62.016 11.6699C62.016 13.5846 62.6654 15.2167 63.9644 16.5663C65.2043 17.8653 66.7606 18.5148 68.6331 18.5148ZM79.9751 11.4801L85.2132 18.1732H88.2371L82.8092 11.3283L87.5032 5.21725H84.6312L79.9751 11.4801ZM79.9751 11.4801V0.902832H77.5586V18.1732H79.9751V11.4801ZM95.4165 18.5148C97.2722 18.5148 98.8537 17.8442 100.161 16.5031C100.794 15.8536 101.283 15.0565 101.629 14.1118H99.1869C98.7736 14.8203 98.2527 15.3622 97.6243 15.7376C96.9959 16.1129 96.2979 16.3006 95.5304 16.3006C94.2398 16.3006 93.1518 15.7903 92.2661 14.7697C91.7937 14.2299 91.4606 13.5551 91.2666 12.7453H101.97C102.021 12.1971 102.046 11.7838 102.046 11.5054C102.046 10.4089 101.802 9.38195 101.312 8.4246C100.823 7.46724 100.136 6.66382 99.2501 6.01434C98.1199 5.19616 96.8631 4.78707 95.4798 4.78707C94.5435 4.78707 93.6368 4.98529 92.7595 5.38173C91.5027 5.9553 90.5243 6.83252 89.8242 8.0134C89.1579 9.1521 88.8247 10.3709 88.8247 11.6699C88.8247 13.5846 89.4995 15.221 90.849 16.579C92.1311 17.8695 93.6536 18.5148 95.4165 18.5148ZM99.6424 10.8855H91.2539C91.3467 10.2613 91.4648 9.77628 91.6082 9.43045C91.7516 9.08462 91.9751 8.74301 92.2787 8.40562C93.1222 7.46935 94.1808 7.00122 95.4545 7.00122C96.9137 7.00122 98.0735 7.63383 98.9338 8.89906C99.364 9.52323 99.6002 10.1854 99.6424 10.8855ZM107.189 18.1732V11.0879C107.163 8.74301 108.222 7.50731 110.364 7.38079V4.87564C108.905 4.88407 107.788 5.38595 107.012 6.38126V5.21725H104.772V18.1732H107.189Z" fill="#DCDCDC"/>
<path opacity="0.8" d="M34.6914 27.5302C34.9376 27.5302 35.1621 27.5021 35.3651 27.446C35.5681 27.3898 35.7419 27.3088 35.8866 27.203C36.0313 27.0972 36.1425 26.9666 36.2202 26.8111C36.2979 26.6557 36.3368 26.4807 36.3368 26.2864C36.3368 26.1309 36.3109 25.9927 36.2591 25.8718C36.2072 25.7509 36.1381 25.6472 36.0518 25.5609C35.9654 25.4745 35.8628 25.4 35.7441 25.3374C35.6253 25.2748 35.499 25.224 35.3651 25.1852C35.4558 25.1463 35.5433 25.0977 35.6275 25.0394C35.7117 24.9811 35.7883 24.9088 35.8574 24.8224C35.9265 24.736 35.9816 24.6367 36.0226 24.5244C36.0636 24.4121 36.0842 24.2804 36.0842 24.1293C36.0842 23.9565 36.0496 23.8 35.9805 23.6596C35.9114 23.5192 35.8121 23.4005 35.6825 23.3033C35.553 23.2061 35.3975 23.1306 35.2161 23.0766C35.0347 23.0226 34.8318 22.9956 34.6072 22.9956H32.6768V27.5302H34.6914ZM34.523 25.0167H33.182V23.4555H34.5618C34.8857 23.4555 35.1341 23.5225 35.3068 23.6564C35.4796 23.7902 35.5659 23.9716 35.5659 24.2005C35.5659 24.4683 35.4688 24.6712 35.2744 24.8094C35.0801 24.9476 34.8296 25.0167 34.523 25.0167ZM34.7044 27.0702H33.182V25.4702H34.6137C35.011 25.4702 35.3111 25.5382 35.5141 25.6742C35.7171 25.8103 35.8186 26.0035 35.8186 26.254C35.8186 26.5131 35.7192 26.714 35.5206 26.8565C35.3219 26.999 35.0498 27.0702 34.7044 27.0702ZM38.5004 27.6014C38.7898 27.6014 39.0252 27.5377 39.2065 27.4103C39.3879 27.2829 39.5348 27.1285 39.647 26.9472V27.5302H40.1394V24.1811H39.647V26.0985C39.647 26.254 39.6211 26.3965 39.5693 26.5261C39.5175 26.6557 39.4473 26.7669 39.3588 26.8597C39.2702 26.9526 39.1644 27.0238 39.0413 27.0735C38.9183 27.1231 38.7855 27.148 38.643 27.148C38.345 27.148 38.1161 27.0573 37.9563 26.8759C37.7965 26.6945 37.7166 26.4484 37.7166 26.1374V24.1811H37.2178V26.2605C37.2178 26.4592 37.247 26.6405 37.3053 26.8046C37.3636 26.9688 37.4478 27.1102 37.5579 27.229C37.668 27.3477 37.8019 27.4395 37.9595 27.5043C38.1172 27.569 38.2975 27.6014 38.5004 27.6014ZM41.8431 23.4491V22.8984H41.273V23.4491H41.8431ZM41.8042 27.5302V24.1811H41.3054V27.5302H41.8042ZM43.5079 27.5302V22.8013H43.0091V27.5302H43.5079ZM46.0732 27.6014C46.2286 27.6014 46.3701 27.582 46.4975 27.5431C46.6249 27.5043 46.7404 27.4503 46.844 27.3812C46.9477 27.3121 47.0416 27.2322 47.1258 27.1415C47.21 27.0508 47.2867 26.9558 47.3558 26.8565V27.5302H47.8546V22.8013H47.3558V24.8224C47.291 24.7274 47.2165 24.6367 47.1323 24.5503C47.0481 24.4639 46.9542 24.3884 46.8505 24.3236C46.7469 24.2588 46.6303 24.207 46.5007 24.1681C46.3711 24.1292 46.2286 24.1098 46.0732 24.1098C45.8702 24.1098 45.6737 24.1498 45.4837 24.2297C45.2936 24.3096 45.1231 24.424 44.9719 24.573C44.8208 24.722 44.6998 24.9044 44.6091 25.1204C44.5185 25.3363 44.4731 25.5825 44.4731 25.8589C44.4731 26.1353 44.5185 26.3814 44.6091 26.5973C44.6998 26.8133 44.8208 26.9957 44.9719 27.1447C45.1231 27.2937 45.2936 27.4071 45.4837 27.4848C45.6737 27.5626 45.8702 27.6014 46.0732 27.6014ZM46.1639 27.1545C46.0041 27.1545 45.8529 27.1242 45.7104 27.0638C45.5679 27.0033 45.4426 26.9158 45.3347 26.8014C45.2267 26.687 45.1414 26.5498 45.0788 26.3901C45.0162 26.2303 44.9849 26.051 44.9849 25.8524C44.9849 25.6494 45.0162 25.4669 45.0788 25.305C45.1414 25.143 45.2256 25.007 45.3314 24.8969C45.4372 24.7868 45.5614 24.7025 45.7039 24.6442C45.8464 24.5859 45.9997 24.5568 46.1639 24.5568C46.3193 24.5568 46.4694 24.5881 46.6141 24.6507C46.7587 24.7133 46.8883 24.8008 47.0028 24.9131C47.1172 25.0254 47.2079 25.1614 47.2748 25.3212C47.3418 25.481 47.3752 25.658 47.3752 25.8524C47.3752 26.0467 47.3418 26.2249 47.2748 26.3868C47.2079 26.5488 47.1172 26.6859 47.0028 26.7982C46.8883 26.9105 46.7587 26.9979 46.6141 27.0605C46.4694 27.1231 46.3193 27.1545 46.1639 27.1545ZM51.4304 28.5861C51.6809 28.5861 51.8936 28.5148 52.0685 28.3723C52.2434 28.2298 52.4021 27.9858 52.5446 27.6403L53.9504 24.1811H53.4192L52.3438 26.9731L51.126 24.1811H50.5753L52.0977 27.5172C51.9983 27.7547 51.8968 27.9189 51.7932 28.0095C51.6895 28.1002 51.5621 28.1456 51.411 28.1456C51.303 28.1456 51.2091 28.1359 51.1292 28.1164C51.0493 28.097 50.9683 28.0657 50.8863 28.0225L50.7179 28.4177C50.8301 28.4738 50.9424 28.5159 51.0547 28.544C51.167 28.572 51.2922 28.5861 51.4304 28.5861ZM56.2695 27.6079C56.5199 27.6079 56.7531 27.5615 56.9691 27.4686C57.185 27.3758 57.3707 27.2495 57.5262 27.0897C57.6817 26.9299 57.8037 26.7431 57.8922 26.5293C57.9807 26.3156 58.025 26.0899 58.025 25.8524C58.025 25.6149 57.9818 25.3903 57.8954 25.1787C57.8091 24.9671 57.6881 24.7824 57.5327 24.6248C57.3772 24.4672 57.1926 24.3419 56.9788 24.2491C56.765 24.1562 56.5329 24.1098 56.2824 24.1098C56.0276 24.1098 55.7933 24.1562 55.5796 24.2491C55.3658 24.3419 55.1812 24.4683 55.0257 24.6281C54.8702 24.7878 54.7493 24.9746 54.6629 25.1884C54.5766 25.4022 54.5334 25.6278 54.5334 25.8653C54.5334 26.1029 54.5766 26.3274 54.6629 26.539C54.7493 26.7507 54.8702 26.9353 55.0257 27.0929C55.1812 27.2505 55.3647 27.3758 55.5763 27.4686C55.7879 27.5615 56.019 27.6079 56.2695 27.6079ZM56.2824 27.1609C56.1053 27.1609 55.9412 27.1264 55.7901 27.0573C55.6389 26.9882 55.5083 26.8953 55.3982 26.7787C55.2881 26.6621 55.2017 26.5239 55.1391 26.3641C55.0764 26.2044 55.0451 26.0338 55.0451 25.8524C55.0451 25.671 55.0754 25.5015 55.1358 25.3439C55.1963 25.1862 55.2794 25.048 55.3852 24.9293C55.491 24.8105 55.6195 24.7177 55.7707 24.6507C55.9218 24.5838 56.0881 24.5503 56.2695 24.5503C56.4465 24.5503 56.6106 24.5849 56.7618 24.654C56.9129 24.7231 57.0447 24.817 57.1569 24.9358C57.2692 25.0545 57.3567 25.1938 57.4193 25.3536C57.4819 25.5134 57.5132 25.684 57.5132 25.8653C57.5132 26.0467 57.483 26.2162 57.4225 26.3739C57.3621 26.5315 57.2779 26.6686 57.1699 26.7852C57.0619 26.9018 56.9324 26.9936 56.7812 27.0605C56.6301 27.1275 56.4638 27.1609 56.2824 27.1609ZM60.1562 27.6014C60.4456 27.6014 60.6809 27.5377 60.8623 27.4103C61.0437 27.2829 61.1905 27.1285 61.3028 26.9472V27.5302H61.7952V24.1811H61.3028V26.0985C61.3028 26.254 61.2769 26.3965 61.2251 26.5261C61.1733 26.6557 61.1031 26.7669 61.0146 26.8597C60.926 26.9526 60.8202 27.0238 60.6971 27.0735C60.5741 27.1231 60.4413 27.148 60.2987 27.148C60.0008 27.148 59.7719 27.0573 59.6121 26.8759C59.4523 26.6945 59.3724 26.4484 59.3724 26.1374V24.1811H58.8736V26.2605C58.8736 26.4592 58.9027 26.6405 58.961 26.8046C59.0194 26.9688 59.1036 27.1102 59.2137 27.229C59.3238 27.3477 59.4577 27.4395 59.6153 27.5043C59.773 27.569 59.9533 27.6014 60.1562 27.6014ZM63.4146 27.5302V26.1957C63.4146 25.9452 63.4492 25.7239 63.5183 25.5317C63.5874 25.3395 63.6824 25.1787 63.8033 25.0491C63.9242 24.9196 64.0657 24.8224 64.2276 24.7576C64.3896 24.6928 64.5612 24.6604 64.7426 24.6604H64.7815V24.1228C64.6217 24.1185 64.4727 24.1379 64.3345 24.1811C64.1963 24.2243 64.0689 24.288 63.9523 24.3722C63.8357 24.4564 63.7321 24.5568 63.6414 24.6734C63.5507 24.79 63.4751 24.9174 63.4146 25.0556V24.1811H62.9158V27.5302H63.4146ZM68.8885 27.6014C69.044 27.6014 69.1854 27.582 69.3128 27.5431C69.4402 27.5043 69.5557 27.4503 69.6594 27.3812C69.763 27.3121 69.857 27.2322 69.9412 27.1415C70.0254 27.0508 70.102 26.9558 70.1711 26.8565V27.5302H70.6699V22.8013H70.1711V24.8224C70.1064 24.7274 70.0319 24.6367 69.9477 24.5503C69.8634 24.4639 69.7695 24.3884 69.6659 24.3236C69.5622 24.2588 69.4456 24.207 69.3161 24.1681C69.1865 24.1292 69.044 24.1098 68.8885 24.1098C68.6855 24.1098 68.489 24.1498 68.299 24.2297C68.109 24.3096 67.9384 24.424 67.7873 24.573C67.6361 24.722 67.5152 24.9044 67.4245 25.1204C67.3338 25.3363 67.2885 25.5825 67.2885 25.8589C67.2885 26.1353 67.3338 26.3814 67.4245 26.5973C67.5152 26.8133 67.6361 26.9957 67.7873 27.1447C67.9384 27.2937 68.109 27.4071 68.299 27.4848C68.489 27.5626 68.6855 27.6014 68.8885 27.6014ZM68.9792 27.1545C68.8194 27.1545 68.6683 27.1242 68.5257 27.0638C68.3832 27.0033 68.258 26.9158 68.15 26.8014C68.0421 26.687 67.9568 26.5498 67.8941 26.3901C67.8315 26.2303 67.8002 26.051 67.8002 25.8524C67.8002 25.6494 67.8315 25.4669 67.8941 25.305C67.9568 25.143 68.041 25.007 68.1468 24.8969C68.2526 24.7868 68.3768 24.7025 68.5193 24.6442C68.6618 24.5859 68.8151 24.5568 68.9792 24.5568C69.1347 24.5568 69.2847 24.5881 69.4294 24.6507C69.5741 24.7133 69.7037 24.8008 69.8181 24.9131C69.9325 25.0254 70.0232 25.1614 70.0902 25.3212C70.1571 25.481 70.1906 25.658 70.1906 25.8524C70.1906 26.0467 70.1571 26.2249 70.0902 26.3868C70.0232 26.5488 69.9325 26.6859 69.8181 26.7982C69.7037 26.9105 69.5741 26.9979 69.4294 27.0605C69.2847 27.1231 69.1347 27.1545 68.9792 27.1545ZM72.283 27.5302V26.1957C72.283 25.9452 72.3175 25.7239 72.3866 25.5317C72.4557 25.3395 72.5507 25.1787 72.6716 25.0491C72.7926 24.9196 72.934 24.8224 73.0959 24.7576C73.2579 24.6928 73.4296 24.6604 73.6109 24.6604H73.6498V24.1228C73.49 24.1185 73.341 24.1379 73.2028 24.1811C73.0646 24.2243 72.9372 24.288 72.8206 24.3722C72.704 24.4564 72.6004 24.5568 72.5097 24.6734C72.419 24.79 72.3434 24.9174 72.283 25.0556V24.1811H71.7842V27.5302H72.283ZM75.8717 27.6079C76.1913 27.6079 76.4591 27.5507 76.675 27.4362C76.8909 27.3218 77.0831 27.1696 77.2515 26.9795L76.9406 26.701C76.8024 26.8435 76.6502 26.958 76.4839 27.0443C76.3176 27.1307 76.1179 27.1739 75.8847 27.1739C75.7379 27.1739 75.5975 27.1491 75.4636 27.0994C75.3298 27.0497 75.2088 26.9763 75.1009 26.8791C74.9929 26.782 74.9044 26.6632 74.8353 26.5229C74.7662 26.3825 74.723 26.2216 74.7057 26.0402H77.3617C77.366 26.01 77.3682 25.9819 77.3682 25.956V25.8848C77.3682 25.6386 77.3336 25.4076 77.2645 25.1916C77.1954 24.9757 77.0939 24.7878 76.96 24.6281C76.8262 24.4683 76.6621 24.3419 76.4677 24.2491C76.2734 24.1562 76.0531 24.1098 75.807 24.1098C75.5738 24.1098 75.3589 24.1552 75.1624 24.2459C74.9659 24.3365 74.7964 24.4607 74.6539 24.6183C74.5114 24.776 74.4002 24.9617 74.3203 25.1754C74.2404 25.3892 74.2004 25.617 74.2004 25.8589C74.2004 26.118 74.2447 26.3555 74.3332 26.5714C74.4218 26.7874 74.5416 26.972 74.6928 27.1253C74.8439 27.2786 75.021 27.3974 75.2239 27.4816C75.4269 27.5658 75.6429 27.6079 75.8717 27.6079ZM76.8629 25.671H74.7057C74.723 25.5069 74.7619 25.3557 74.8223 25.2175C74.8828 25.0793 74.9605 24.9595 75.0555 24.858C75.1505 24.7565 75.2607 24.6766 75.3859 24.6183C75.5111 24.56 75.6472 24.5309 75.794 24.5309C75.9624 24.5309 76.1103 24.5622 76.2377 24.6248C76.3651 24.6874 76.4731 24.7706 76.5616 24.8742C76.6502 24.9779 76.7193 25.0988 76.7689 25.237C76.8186 25.3752 76.8499 25.5198 76.8629 25.671ZM79.2403 27.6014C79.5383 27.6014 79.7855 27.5431 79.982 27.4265C80.1785 27.3099 80.3351 27.176 80.4517 27.0249V27.5302H80.931V25.4831C80.931 25.0383 80.8079 24.7025 80.5618 24.4758C80.3156 24.2491 79.9637 24.1357 79.5059 24.1357C79.2597 24.1357 79.0416 24.1606 78.8516 24.2102C78.6616 24.2599 78.4737 24.3279 78.288 24.4143L78.437 24.8224C78.5925 24.749 78.7512 24.6896 78.9131 24.6442C79.0751 24.5989 79.2554 24.5762 79.454 24.5762C79.7693 24.5762 80.0144 24.6529 80.1893 24.8062C80.3642 24.9595 80.4517 25.1873 80.4517 25.4896V25.6062C80.3005 25.563 80.145 25.5285 79.9852 25.5026C79.8255 25.4767 79.6376 25.4637 79.4217 25.4637C79.21 25.4637 79.0168 25.4875 78.8419 25.535C78.667 25.5825 78.5158 25.6516 78.3884 25.7423C78.261 25.833 78.1628 25.9463 78.0937 26.0824C78.0246 26.2184 77.99 26.3749 77.99 26.552C77.99 26.7291 78.0257 26.8824 78.0969 27.0119C78.1682 27.1415 78.2632 27.2505 78.382 27.3391C78.5007 27.4276 78.6346 27.4935 78.7836 27.5367C78.9326 27.5798 79.0848 27.6014 79.2403 27.6014ZM79.3374 27.2063C79.2252 27.2063 79.1183 27.1912 79.0168 27.1609C78.9153 27.1307 78.8257 27.0864 78.748 27.0281C78.6702 26.9698 78.6087 26.8997 78.5633 26.8176C78.518 26.7355 78.4953 26.6405 78.4953 26.5326C78.4953 26.3166 78.5795 26.1461 78.748 26.0208C78.9164 25.8956 79.1582 25.8329 79.4735 25.8329C79.6808 25.8329 79.8654 25.8481 80.0273 25.8783C80.1893 25.9085 80.3329 25.9409 80.4581 25.9755V26.2994C80.4581 26.4332 80.429 26.5552 80.3707 26.6654C80.3124 26.7755 80.2325 26.8705 80.131 26.9504C80.0295 27.0303 79.9107 27.0929 79.7747 27.1383C79.6387 27.1836 79.4929 27.2063 79.3374 27.2063ZM82.4922 27.5302V25.6192C82.4922 25.4637 82.516 25.3223 82.5635 25.1949C82.611 25.0675 82.6768 24.9563 82.761 24.8613C82.8453 24.7662 82.9435 24.6928 83.0558 24.641C83.1681 24.5892 83.2912 24.5633 83.425 24.5633C83.6928 24.5633 83.9033 24.6507 84.0566 24.8256C84.2099 25.0005 84.2866 25.2456 84.2866 25.5609V27.5302H84.7789V25.5997C84.7789 25.4356 84.8038 25.2888 84.8534 25.1592C84.9031 25.0297 84.97 24.9206 85.0542 24.8321C85.1385 24.7436 85.2367 24.6766 85.349 24.6313C85.4613 24.5859 85.58 24.5633 85.7053 24.5633C85.9774 24.5633 86.19 24.6507 86.3434 24.8256C86.4967 25.0005 86.5733 25.2499 86.5733 25.5738V27.5302H87.0721V25.4572C87.0721 25.0383 86.962 24.709 86.7417 24.4693C86.5215 24.2297 86.217 24.1098 85.8284 24.1098C85.6815 24.1098 85.5487 24.1271 85.43 24.1616C85.3112 24.1962 85.2043 24.2437 85.1093 24.3042C85.0143 24.3646 84.929 24.4359 84.8534 24.5179C84.7778 24.6 84.7098 24.6864 84.6494 24.777C84.5587 24.587 84.4248 24.4283 84.2477 24.3009C84.0707 24.1735 83.8461 24.1098 83.574 24.1098C83.4315 24.1098 83.3063 24.1271 83.1983 24.1616C83.0903 24.1962 82.9932 24.2426 82.9068 24.3009C82.8204 24.3592 82.7438 24.4272 82.6768 24.505C82.6099 24.5827 82.5484 24.6626 82.4922 24.7447V24.1811H81.9934V27.5302H82.4922ZM90.5961 27.5302V25.6127C90.5961 25.4572 90.621 25.3147 90.6706 25.1852C90.7203 25.0556 90.7905 24.9444 90.8812 24.8515C90.9718 24.7587 91.0787 24.6874 91.2018 24.6378C91.3249 24.5881 91.4577 24.5633 91.6002 24.5633C91.8982 24.5633 92.1271 24.654 92.2869 24.8353C92.4467 25.0167 92.5266 25.2629 92.5266 25.5738V27.5302H93.0254V25.4508C93.0254 25.2521 92.9962 25.0707 92.9379 24.9066C92.8796 24.7425 92.7954 24.6011 92.6853 24.4823C92.5751 24.3635 92.4413 24.2718 92.2836 24.207C92.126 24.1422 91.9457 24.1098 91.7427 24.1098C91.4534 24.1098 91.218 24.1735 91.0366 24.3009C90.8552 24.4283 90.7084 24.5827 90.5961 24.7641V22.8013H90.0973V27.5302H90.5961ZM95.6165 27.6079C95.867 27.6079 96.1002 27.5615 96.3162 27.4686C96.5321 27.3758 96.7178 27.2495 96.8733 27.0897C97.0287 26.9299 97.1507 26.7431 97.2393 26.5293C97.3278 26.3156 97.3721 26.0899 97.3721 25.8524C97.3721 25.6149 97.3289 25.3903 97.2425 25.1787C97.1561 24.9671 97.0352 24.7824 96.8797 24.6248C96.7243 24.4672 96.5396 24.3419 96.3259 24.2491C96.1121 24.1562 95.88 24.1098 95.6295 24.1098C95.3747 24.1098 95.1404 24.1562 94.9266 24.2491C94.7129 24.3419 94.5282 24.4683 94.3728 24.6281C94.2173 24.7878 94.0964 24.9746 94.01 25.1884C93.9236 25.4022 93.8805 25.6278 93.8805 25.8653C93.8805 26.1029 93.9236 26.3274 94.01 26.539C94.0964 26.7507 94.2173 26.9353 94.3728 27.0929C94.5282 27.2505 94.7118 27.3758 94.9234 27.4686C95.135 27.5615 95.3661 27.6079 95.6165 27.6079ZM95.6295 27.1609C95.4524 27.1609 95.2883 27.1264 95.1372 27.0573C94.986 26.9882 94.8554 26.8953 94.7453 26.7787C94.6351 26.6621 94.5488 26.5239 94.4861 26.3641C94.4235 26.2044 94.3922 26.0338 94.3922 25.8524C94.3922 25.671 94.4224 25.5015 94.4829 25.3439C94.5434 25.1862 94.6265 25.048 94.7323 24.9293C94.8381 24.8105 94.9666 24.7177 95.1177 24.6507C95.2689 24.5838 95.4352 24.5503 95.6165 24.5503C95.7936 24.5503 95.9577 24.5849 96.1089 24.654C96.26 24.7231 96.3917 24.817 96.504 24.9358C96.6163 25.0545 96.7038 25.1938 96.7664 25.3536C96.829 25.5134 96.8603 25.684 96.8603 25.8653C96.8603 26.0467 96.8301 26.2162 96.7696 26.3739C96.7092 26.5315 96.6249 26.6686 96.517 26.7852C96.409 26.9018 96.2795 26.9936 96.1283 27.0605C95.9772 27.1275 95.8109 27.1609 95.6295 27.1609ZM98.7713 27.5302V25.6192C98.7713 25.4637 98.7951 25.3223 98.8426 25.1949C98.8901 25.0675 98.9559 24.9563 99.0401 24.8613C99.1244 24.7662 99.2226 24.6928 99.3349 24.641C99.4472 24.5892 99.5703 24.5633 99.7041 24.5633C99.9719 24.5633 100.182 24.6507 100.336 24.8256C100.489 25.0005 100.566 25.2456 100.566 25.5609V27.5302H101.058V25.5997C101.058 25.4356 101.083 25.2888 101.133 25.1592C101.182 25.0297 101.249 24.9206 101.333 24.8321C101.418 24.7436 101.516 24.6766 101.628 24.6313C101.74 24.5859 101.859 24.5633 101.984 24.5633C102.256 24.5633 102.469 24.6507 102.622 24.8256C102.776 25.0005 102.852 25.2499 102.852 25.5738V27.5302H103.351V25.4572C103.351 25.0383 103.241 24.709 103.021 24.4693C102.801 24.2297 102.496 24.1098 102.107 24.1098C101.961 24.1098 101.828 24.1271 101.709 24.1616C101.59 24.1962 101.483 24.2437 101.388 24.3042C101.293 24.3646 101.208 24.4359 101.133 24.5179C101.057 24.6 100.989 24.6864 100.928 24.777C100.838 24.587 100.704 24.4283 100.527 24.3009C100.35 24.1735 100.125 24.1098 99.8531 24.1098C99.7106 24.1098 99.5854 24.1271 99.4774 24.1616C99.3694 24.1962 99.2723 24.2426 99.1859 24.3009C99.0995 24.3592 99.0229 24.4272 98.9559 24.505C98.889 24.5827 98.8274 24.6626 98.7713 24.7447V24.1811H98.2725V27.5302H98.7713ZM105.897 27.6079C106.217 27.6079 106.484 27.5507 106.7 27.4362C106.916 27.3218 107.108 27.1696 107.277 26.9795L106.966 26.701C106.828 26.8435 106.675 26.958 106.509 27.0443C106.343 27.1307 106.143 27.1739 105.91 27.1739C105.763 27.1739 105.623 27.1491 105.489 27.0994C105.355 27.0497 105.234 26.9763 105.126 26.8791C105.018 26.782 104.93 26.6632 104.861 26.5229C104.791 26.3825 104.748 26.2216 104.731 26.0402H107.387C107.391 26.01 107.393 25.9819 107.393 25.956V25.8848C107.393 25.6386 107.359 25.4076 107.29 25.1916C107.221 24.9757 107.119 24.7878 106.985 24.6281C106.851 24.4683 106.687 24.3419 106.493 24.2491C106.299 24.1562 106.078 24.1098 105.832 24.1098C105.599 24.1098 105.384 24.1552 105.188 24.2459C104.991 24.3365 104.822 24.4607 104.679 24.6183C104.537 24.776 104.425 24.9617 104.346 25.1754C104.266 25.3892 104.226 25.617 104.226 25.8589C104.226 26.118 104.27 26.3555 104.359 26.5714C104.447 26.7874 104.567 26.972 104.718 27.1253C104.869 27.2786 105.046 27.3974 105.249 27.4816C105.452 27.5658 105.668 27.6079 105.897 27.6079ZM106.888 25.671H104.731C104.748 25.5069 104.787 25.3557 104.848 25.2175C104.908 25.0793 104.986 24.9595 105.081 24.858C105.176 24.7565 105.286 24.6766 105.411 24.6183C105.536 24.56 105.672 24.5309 105.819 24.5309C105.988 24.5309 106.136 24.5622 106.263 24.6248C106.39 24.6874 106.498 24.7706 106.587 24.8742C106.675 24.9779 106.745 25.0988 106.794 25.237C106.844 25.3752 106.875 25.5198 106.888 25.671Z" fill="#EDEDEF"/>
<path fill-rule="evenodd" clip-rule="evenodd" d="M12.242 15.6538V17.0891L0.00585938 28.6097V27.1744L12.242 15.6538ZM12.6019 15.6538L24.838 27.1744V28.6097L12.6019 17.0891V15.6538ZM12.242 11.695V13.1302L0.00585938 24.651V23.2158L12.242 11.695ZM12.6019 11.695L24.838 23.2158V24.651L12.6019 13.1304V11.695ZM12.242 8.09619V9.53149L0.00585938 21.0521V19.6169L12.242 8.09619ZM12.6019 8.09619L24.838 19.6169V21.0521L12.6019 9.53151V8.09619ZM12.242 4.49732V5.93248L0.00585938 17.4532V16.0181L12.242 4.49732ZM12.6019 4.49732L24.838 16.0181V17.4532L12.6019 5.93264V4.49732ZM12.242 0.538574V1.97388L0.00585938 13.4945V12.0592L12.242 0.538574ZM12.6019 0.538574L24.838 12.0592V13.4945L12.6019 1.9739V0.538574Z" fill="white"/>
</g>
</svg>
