<svg width="85" height="30" viewBox="0 0 85 30" fill="none" xmlns="http://www.w3.org/2000/svg">
<g opacity="0.5">
<path d="M44.4497 3.86691C44.2407 2.71039 43.3071 1.2334 40.8408 1.2334C38.9458 1.2334 37.3016 2.54319 37.3016 4.41033C37.3016 5.87339 38.3188 6.98811 39.9909 7.30859L41.3425 7.5594C41.9973 7.6848 42.4014 8.04708 42.4014 8.5487C42.4014 9.1618 41.8719 9.57981 41.008 9.57981C39.6564 9.57981 39.0434 8.78558 38.9598 7.87988L36.9393 8.36756C37.0787 9.76095 38.2491 11.5306 40.9802 11.5306C43.335 11.5306 44.6309 9.95603 44.6309 8.40937C44.6309 7.00204 43.6555 5.78979 41.7744 5.44144L40.4507 5.19063C39.7679 5.06522 39.4753 4.71688 39.4753 4.24312C39.4753 3.6997 40.0048 3.18415 40.8269 3.18415C42.0252 3.18415 42.4014 3.96445 42.4711 4.42427L44.4497 3.86691Z" fill="white"/>
<path d="M52.501 11.3216H54.8976L51.2191 1.44241H48.6692L44.9488 11.3216H47.2619L47.9725 9.31507H51.7904L52.501 11.3216ZM49.9093 3.89478L51.0937 7.30859H48.6971L49.9093 3.89478Z" fill="white"/>
<path d="M62.7337 11.3216H65.1304L61.4518 1.44241H58.9019L55.1815 11.3216H57.4946L58.2052 9.31507H62.0231L62.7337 11.3216ZM60.142 3.89478L61.3264 7.30859H58.9298L60.142 3.89478Z" fill="white"/>
<path d="M73.134 3.86691C72.925 2.71039 71.9914 1.2334 69.5251 1.2334C67.6301 1.2334 65.9859 2.54319 65.9859 4.41033C65.9859 5.87339 67.0031 6.98811 68.6751 7.30859L70.0267 7.5594C70.6816 7.6848 71.0857 8.04708 71.0857 8.5487C71.0857 9.1618 70.5562 9.57981 69.6923 9.57981C68.3407 9.57981 67.7276 8.78558 67.644 7.87988L65.6236 8.36756C65.7629 9.76095 66.9334 11.5306 69.6644 11.5306C72.0193 11.5306 73.3151 9.95603 73.3151 8.40937C73.3151 7.00204 72.3398 5.78979 70.4587 5.44144L69.135 5.19063C68.4522 5.06522 68.1596 4.71688 68.1596 4.24312C68.1596 3.6997 68.6891 3.18415 69.5112 3.18415C70.7095 3.18415 71.0857 3.96445 71.1554 4.42427L73.134 3.86691Z" fill="white"/>
<path d="M45.1325 20.9638V18.8598H36.8418V20.9638H39.8794V28.7389H42.0809V20.9638H45.1325Z" fill="white"/>
<path d="M47.9637 23.7924C47.9637 21.7302 49.4407 20.7966 50.8201 20.7966C52.1856 20.7966 53.6626 21.7302 53.6626 23.7924C53.6626 25.8546 52.1856 26.7743 50.8201 26.7743C49.4407 26.7743 47.9637 25.8546 47.9637 23.7924ZM45.6785 23.8063C45.6785 26.9275 48.0333 28.948 50.8201 28.948C53.593 28.948 55.9478 26.9275 55.9478 23.8063C55.9478 20.6712 53.593 18.6508 50.8201 18.6508C48.0333 18.6508 45.6785 20.6712 45.6785 23.8063Z" fill="white"/>
<path d="M59.7182 26.6628V20.936H61.0002C62.519 20.936 63.7591 21.8277 63.7591 23.8063C63.7591 25.785 62.519 26.6628 61.0002 26.6628H59.7182ZM61.0838 28.7389C64.0656 28.7389 66.0582 26.8579 66.0582 23.8063C66.0582 20.7548 64.0656 18.8598 61.0977 18.8598H57.5167V28.7389H61.0838Z" fill="white"/>
<path d="M73.7012 28.7389H76.0979L72.4193 18.8598H69.8694L66.1491 28.7389H68.4621L69.1727 26.7325H72.9906L73.7012 28.7389ZM71.1095 21.3122L72.2939 24.726H69.8973L71.1095 21.3122Z" fill="white"/>
<path d="M78.5849 24.6145V28.7389H80.7864V24.6145L84.256 18.8598H81.8036L79.7553 22.5244L77.7349 18.8598H75.1571L78.5849 24.6145Z" fill="white"/>
<path fill-rule="evenodd" clip-rule="evenodd" d="M14.8048 0C22.9812 0 29.6096 6.62833 29.6096 14.8048C29.6096 22.9812 22.9812 29.6096 14.8048 29.6096C6.62833 29.6096 0 22.9812 0 14.8048C0 6.62833 6.62833 0 14.8048 0ZM14.8048 6.96696C10.4761 6.96696 6.96696 10.4761 6.96696 14.8048C6.96696 19.1335 10.4761 22.6426 14.8048 22.6426C19.1335 22.6426 22.6426 19.1335 22.6426 14.8048C22.6426 10.4761 19.1335 6.96696 14.8048 6.96696Z" fill="white"/>
</g>
</svg>
