<svg width="30" height="30" viewBox="0 0 30 30" fill="none" xmlns="http://www.w3.org/2000/svg">
<path d="M21.4983 6.95862C21.3151 6.87319 21.1055 6.86404 20.9155 6.93317C20.7256 7.00231 20.5709 7.14407 20.4855 7.32727C20.4 7.51047 20.3909 7.7201 20.46 7.91005C20.5291 8.1 20.6709 8.2547 20.8541 8.34013C22.1638 8.95174 23.1771 10.0582 23.6714 11.4165C24.1658 12.7747 24.1008 14.2737 23.4907 15.5841C23.4037 15.7689 23.3937 15.9807 23.4629 16.1729C23.5321 16.3651 23.6748 16.522 23.8597 16.609C24.0445 16.6959 24.2563 16.7059 24.4485 16.6367C24.6407 16.5675 24.7976 16.4248 24.8846 16.24C25.2719 15.4098 25.4919 14.5115 25.5319 13.5963C25.572 12.6811 25.4313 11.767 25.118 10.9062C24.8047 10.0454 24.3249 9.25471 23.7059 8.57938C23.087 7.90405 22.341 7.35729 21.5107 6.97033L21.4983 6.95862Z" fill="#1C1C1D"/>
<path d="M20.2743 9.57978C20.1836 9.53748 20.0854 9.51346 19.9854 9.5091C19.8854 9.50473 19.7855 9.5201 19.6915 9.55434C19.5974 9.58857 19.511 9.64099 19.4373 9.70861C19.3635 9.77623 19.3037 9.85772 19.2614 9.94843C19.2191 10.0391 19.1951 10.1373 19.1907 10.2373C19.1864 10.3373 19.2017 10.4372 19.236 10.5312C19.2702 10.6253 19.3226 10.7117 19.3902 10.7854C19.4579 10.8592 19.5393 10.919 19.6301 10.9613C20.2449 11.2483 20.7206 11.7676 20.9526 12.4052C21.1847 13.0427 21.1541 13.7463 20.8676 14.3614C20.7822 14.5446 20.773 14.7542 20.8421 14.9441C20.9113 15.1341 21.053 15.2888 21.2362 15.3742C21.4194 15.4596 21.6291 15.4688 21.819 15.3997C22.009 15.3305 22.1637 15.1888 22.2491 15.0056C22.7056 14.024 22.7541 12.9015 22.3839 11.8842C22.0136 10.867 21.2549 10.0382 20.2743 9.57978ZM16.355 6.89639C16.224 6.86918 16.0882 6.87695 15.9612 6.91892C15.8341 6.96088 15.7204 7.03556 15.6314 7.13544L10.2865 13.0408L4.01963 15.3217C3.82979 15.3908 3.67517 15.5325 3.58979 15.7156C3.50441 15.8987 3.49526 16.1082 3.56436 16.298L5.12754 20.5929C5.19664 20.7827 5.33832 20.9373 5.52142 21.0227C5.70452 21.1081 5.91403 21.1172 6.10388 21.0481L6.97716 20.7303L10.1603 25.4447C10.2556 25.585 10.395 25.6895 10.5564 25.7416C10.7178 25.7938 10.892 25.7905 11.0513 25.7324L14.2725 24.56C14.3814 24.5204 14.4799 24.4565 14.5604 24.373C14.641 24.2896 14.7014 24.1889 14.737 24.0785C14.7727 23.9682 14.7827 23.8512 14.7664 23.7364C14.75 23.6216 14.7076 23.5121 14.6424 23.4161L11.6728 19.0212L12.3672 18.7685L20.2825 19.8474C20.4129 19.8659 20.5458 19.8502 20.6682 19.8019C20.7907 19.7536 20.8986 19.6744 20.9814 19.5721C21.0641 19.4697 21.1189 19.3476 21.1405 19.2177C21.162 19.0878 21.1495 18.9546 21.1042 18.831L16.9357 7.37813C16.889 7.25433 16.811 7.14479 16.7092 7.06032C16.6074 6.97585 16.4853 6.91935 16.355 6.89639ZM11.0886 24.0976L8.45171 20.1936L10.1983 19.5579L12.8352 23.4619L11.0886 24.0976ZM11.3092 17.5323L6.29862 19.356L5.25649 16.4928L10.2671 14.6691L11.3092 17.5323ZM19.2414 18.1674L12.8451 17.2975L11.5958 13.8653L15.9365 9.08743L19.2414 18.1674Z" fill="#1C1C1D"/>
</svg>
