<svg width="30" height="30" viewBox="0 0 30 30" fill="none" xmlns="http://www.w3.org/2000/svg">
<g clip-path="url(#clip0_222_8465)">
<path d="M26.0023 22.9561L24.2745 21.2311C23.8258 20.7831 23.226 20.5354 22.5872 20.5354C22.191 20.5354 21.8147 20.641 21.4766 20.8197L20.8864 20.2304C22.4384 18.4244 23.3827 16.0831 23.3827 13.5218C23.3827 7.82902 18.7432 3.19727 13.041 3.19727C7.33868 3.19727 2.69922 7.82902 2.69922 13.5218C2.69922 19.2146 7.33868 23.8464 13.041 23.8464C15.6065 23.8464 17.9517 22.9029 19.7607 21.3534L20.351 21.9427C20.1712 22.281 20.0662 22.6559 20.0662 23.0514C20.0662 23.6891 20.3144 24.2879 20.7631 24.7359L22.4909 26.4608C22.9396 26.9088 23.5394 27.1566 24.1782 27.1566C24.817 27.1566 25.4168 26.9088 25.8655 26.4608L26.0023 26.3242C26.451 25.8763 26.6992 25.2775 26.6992 24.6398C26.6992 24.002 26.451 23.404 26.0023 22.9561ZM13.041 22.258C9.89389 22.258 7.13821 20.5854 5.5957 18.0892C5.61241 18.0749 5.6323 18.0702 5.64821 18.0543L9.93366 13.776L12.5636 15.7456C12.8803 15.9846 13.3242 15.9521 13.6034 15.6717L17.8141 11.468V12.7276C17.8141 13.1668 18.1697 13.5218 18.6096 13.5218C19.0495 13.5218 19.4051 13.1668 19.4051 12.7276V9.55083C19.4051 9.44759 19.3844 9.34434 19.3439 9.24745C19.2627 9.05287 19.1084 8.8988 18.9135 8.81779C18.8164 8.77729 18.713 8.75664 18.6096 8.75664H15.4275C14.9884 8.75664 14.632 9.11164 14.632 9.55083C14.632 9.99002 14.9884 10.345 15.4275 10.345H16.6892L12.9662 14.0619L10.3362 12.0923C10.0196 11.854 9.57568 11.8858 9.29645 12.1661L4.85985 16.5954C4.49789 15.6375 4.29026 14.6043 4.29026 13.5218C4.29026 8.70501 8.21614 4.78566 13.041 4.78566C17.8658 4.78566 21.7917 8.70501 21.7917 13.5218C21.7917 18.3386 17.8658 22.258 13.041 22.258ZM24.8775 25.202L24.7407 25.3387C24.4423 25.6349 23.9141 25.6349 23.6158 25.3387L21.8879 23.6137C21.7392 23.4643 21.6572 23.2658 21.6572 23.0522C21.6572 22.8385 21.74 22.6392 21.8879 22.4907L22.0248 22.3541C22.1743 22.2055 22.3732 22.1237 22.5872 22.1237C22.8012 22.1237 23.0009 22.2063 23.1496 22.3541L24.8775 24.0791C25.0262 24.2284 25.1082 24.4269 25.1082 24.6406C25.1082 24.8542 25.0254 25.0535 24.8775 25.202Z" fill="white"/>
<path d="M9.86192 16.6982C9.4228 16.6982 9.06641 17.0533 9.06641 17.4925V19.8752C9.06641 20.3144 9.4228 20.6694 9.86192 20.6694C10.301 20.6694 10.6574 20.3144 10.6574 19.8752V17.4925C10.6574 17.0533 10.301 16.6982 9.86192 16.6982ZM13.044 16.6982C12.6049 16.6982 12.2485 17.0533 12.2485 17.4925V19.8752C12.2485 20.3144 12.6049 20.6694 13.044 20.6694C13.4831 20.6694 13.8395 20.3144 13.8395 19.8752V17.4925C13.8395 17.0533 13.4831 16.6982 13.044 16.6982ZM16.2261 16.6982C15.7861 16.6982 15.4305 17.0533 15.4305 17.4925V19.8752C15.4305 20.3144 15.7861 20.6694 16.2261 20.6694C16.666 20.6694 17.0216 20.3144 17.0216 19.8752V17.4925C17.0216 17.0533 16.666 16.6982 16.2261 16.6982Z" fill="white"/>
</g>
<defs>
<clipPath id="clip0_222_8465">
<rect width="30" height="30" fill="white"/>
</clipPath>
</defs>
</svg>
