<svg width="60" height="60" viewBox="0 0 60 60" fill="none" xmlns="http://www.w3.org/2000/svg">
<path fill-rule="evenodd" clip-rule="evenodd" d="M41.6769 36.1622C40.9508 35.9155 40.28 35.5291 39.7024 35.0246C39.7024 35.0121 39.7024 35.0121 39.6899 35.0121C39.6149 34.9496 39.5524 34.8746 39.4774 34.8121C39.4661 34.8073 39.4572 34.7984 39.4524 34.7871C38.4276 33.761 37.8104 32.3977 37.7154 30.9506C40.0945 27.8026 41.3489 23.9476 41.2781 20.0024C41.28 18.4007 41.0828 16.805 40.6912 15.252V15.2433C41.3135 14.2084 41.5601 12.9906 41.3893 11.7951C41.2185 10.5996 40.6408 9.49958 39.7536 8.68031C37.312 6.47287 34.1813 5.17906 30.8937 5.01881C30.5065 4.99373 30.1182 4.99373 29.7311 5.01881C21.9462 5.31883 15.8476 11.9049 15.8476 20.0036C15.8485 20.184 15.888 20.3621 15.9635 20.526C16.039 20.6899 16.1486 20.8357 16.2852 20.9537C16.9999 21.5548 17.8893 21.9097 18.8216 21.9656C19.0804 25.417 20.4083 28.702 22.6206 31.3638C22.7408 31.4966 22.8874 31.6031 23.0509 31.6762C23.2145 31.7494 23.3915 31.7877 23.5707 31.7888C23.871 31.7894 24.1607 31.6779 24.3832 31.4763C24.6332 31.259 24.7868 30.9515 24.8102 30.6211C24.8337 30.2908 24.725 29.9646 24.5082 29.7143C22.6397 27.4251 21.5261 24.6134 21.3205 21.6656C24.1695 20.8786 27.906 18.5404 33.0051 14.3795L36.9541 18.0166C37.0861 18.1338 37.2405 18.2231 37.408 18.2789C37.5755 18.3348 37.7526 18.3561 37.9285 18.3416C38.2019 18.316 38.458 18.1968 38.6536 18.0041C38.7392 18.6673 38.781 19.3355 38.7786 20.0042C38.7786 23.7907 37.5785 27.3172 35.504 29.7024V29.7149L35.479 29.7399C34.8201 30.5681 33.9897 31.2439 33.0449 31.7207C32.1 32.1975 31.0631 32.464 30.0055 32.502C29.6739 32.502 29.356 32.6337 29.1215 32.8681C28.8871 33.1025 28.7554 33.4205 28.7554 33.752C28.7554 34.0836 28.8871 34.4015 29.1215 34.636C29.356 34.8704 29.6739 35.0021 30.0055 35.0021C32.0271 34.9827 33.986 34.2976 35.579 33.0526C35.8804 34.0519 36.3681 34.985 37.0166 35.8028L30.368 42.4514C30.1326 42.685 29.9997 43.0027 29.9984 43.3343C29.9972 43.666 30.1278 43.9846 30.3614 44.2199C30.5951 44.4553 30.9127 44.5883 31.2444 44.5895C31.576 44.5907 31.8946 44.4602 32.13 44.2265L38.8411 37.5148C39.4748 37.9476 40.1642 38.2924 40.8906 38.5399C50.8125 41.8526 51.8876 43.964 51.8876 44.7134C51.8876 47.2761 44.7271 50.6126 36.2415 51.9995C33.5033 52.4413 30.726 52.5921 27.956 52.4496C27.6257 52.4381 27.3041 52.5557 27.059 52.7774C26.814 52.9991 26.6649 53.3074 26.6434 53.6372C26.6277 53.9685 26.7438 54.2925 26.9664 54.5385C27.1889 54.7844 27.4997 54.9323 27.831 54.9497C28.5435 54.9873 29.2811 54.9998 30.0186 54.9998C32.2413 55.0074 34.4608 54.8318 36.6547 54.4747C43.2401 53.3878 54.3872 50.1132 54.3872 44.714C54.3859 41.7363 50.4625 39.0987 41.6769 36.1622ZM38.4267 14.1157L37.6141 15.2283L33.9026 11.7905C33.6787 11.5859 33.3882 11.4693 33.0849 11.4624C32.7816 11.4556 32.4861 11.5588 32.2531 11.753C26.0796 16.8784 21.7062 19.4767 19.2316 19.4767C18.937 19.4844 18.6438 19.4334 18.3691 19.3267C18.6816 12.8887 23.6057 7.754 29.8786 7.51336C30.0161 7.50086 30.1411 7.50086 30.2786 7.50086C30.4161 7.50086 30.5661 7.50086 30.7537 7.51336C33.4759 7.62237 36.071 8.69422 38.0767 10.538C38.5622 10.9889 38.866 11.602 38.9307 12.2615C38.9954 12.921 38.8166 13.5814 38.4279 14.1182L38.4267 14.1157ZM39.6886 35.0121C39.6136 34.9496 39.5511 34.8746 39.4761 34.8121C39.5333 34.8543 39.5876 34.9002 39.6386 34.9496C39.6524 34.9746 39.6774 34.9871 39.6899 35.0121H39.6886ZM16.2545 54.5835C14.029 54.5842 11.8533 53.9249 10.0026 52.689C8.15185 51.453 6.70922 49.696 5.8572 47.6401C5.00517 45.5841 4.78201 43.3217 5.21596 41.1389C5.6499 38.9562 6.72145 36.9511 8.29506 35.3774C9.86867 33.8037 11.8737 32.7321 14.0564 32.298C16.2391 31.8639 18.5016 32.087 20.5576 32.9389C22.6135 33.7908 24.3707 35.2333 25.6067 37.084C26.8428 38.9347 27.5022 41.1103 27.5016 43.3358C27.4983 46.3178 26.3122 49.1766 24.2038 51.2852C22.0953 53.3939 19.2365 54.58 16.2545 54.5835ZM16.2545 34.5871C14.5237 34.5865 12.8316 35.0992 11.3921 36.0603C9.95267 37.0215 8.83059 38.3879 8.1678 39.9868C7.50501 41.5857 7.33128 43.3453 7.66857 45.0429C8.00586 46.7406 8.83902 48.3001 10.0627 49.5242C11.2864 50.7483 12.8456 51.582 14.5431 51.9199C16.2406 52.2578 18.0003 52.0847 19.5994 51.4225C21.1985 50.7603 22.5654 49.6387 23.5271 48.1996C24.4887 46.7605 25.002 45.0685 25.002 43.3377C24.9999 41.0181 24.0777 38.7941 22.4378 37.1536C20.7978 35.5131 18.5741 34.5901 16.2545 34.5871ZM14.8419 48.208C14.5104 48.208 14.1925 48.0762 13.9581 47.8418L10.3722 44.2559C10.1501 44.0191 10.0287 43.7052 10.0339 43.3806C10.0391 43.056 10.1703 42.7461 10.3999 42.5165C10.6295 42.287 10.9393 42.1557 11.264 42.1505C11.5886 42.1454 11.9025 42.2667 12.1393 42.4889L14.8419 45.1909L20.3698 39.6624C20.607 39.4407 20.9211 39.3199 21.2457 39.3256C21.5703 39.3313 21.88 39.4631 22.1092 39.6931C22.3383 39.9231 22.4691 40.2332 22.4736 40.5579C22.4782 40.8825 22.3563 41.1962 22.1337 41.4326L15.722 47.8443C15.4884 48.0772 15.1719 48.2081 14.8419 48.208Z" fill="#4732BA"/>
</svg>
