<svg width="120" height="120" viewBox="0 0 120 120" fill="none" xmlns="http://www.w3.org/2000/svg">
<g clip-path="url(#clip0_244_2607)">
<path d="M0 71.4844V85.5469C0 92.6662 5.77125 98.4375 12.8906 98.4375H19.9219C21.8634 98.4375 23.4375 96.8634 23.4375 94.9219V58.5938H12.8906C5.77125 58.5938 0 64.365 0 71.4844Z" fill="#8F7CF6"/>
<path d="M82.2656 69.1406V50.3906C82.2656 45.8674 78.5857 42.1875 74.0625 42.1875H45.9375C41.4143 42.1875 37.7344 45.8674 37.7344 50.3906V69.1406C37.7344 73.6638 41.4143 77.3438 45.9375 77.3438H54.0396L67.1243 88.2476C67.7686 88.7845 68.5681 89.0625 69.3755 89.0625C69.8813 89.0625 70.3903 88.9533 70.8661 88.7306C72.1015 88.152 72.8906 86.9109 72.8906 85.5469V77.3438H74.0625C78.5857 77.3438 82.2656 73.6638 82.2656 69.1406ZM64.6875 63.2812H55.3125C53.3709 63.2812 51.7969 61.7072 51.7969 59.7656C51.7969 57.8241 53.3709 56.25 55.3125 56.25H64.6875C66.6291 56.25 68.2031 57.8241 68.2031 59.7656C68.2031 61.7072 66.6291 63.2812 64.6875 63.2812Z" fill="#C8F031"/>
<path d="M47.1094 112.969C47.1094 116.852 50.2573 120 54.1406 120H65.8594C69.7427 120 72.8906 116.852 72.8906 112.969C72.8906 109.085 69.7427 105.938 65.8594 105.938H54.1406C50.2573 105.938 47.1094 109.085 47.1094 112.969Z" fill="#8F7CF6"/>
<path d="M98.9062 105.469V106.172C98.9062 108.11 97.3291 109.688 95.3905 109.688H79.5313C79.7842 110.741 79.9218 111.839 79.9218 112.969C79.9218 114.267 79.7411 115.524 79.4102 116.719H95.3905C101.206 116.719 105.937 111.987 105.937 106.172V105.469H98.9062Z" fill="#8F7CF6"/>
<path d="M107.109 58.5938H96.5625V94.9219C96.5625 96.8634 98.1366 98.4375 100.078 98.4375H107.109C114.229 98.4375 120 92.6662 120 85.5469V71.4844C120 64.365 114.229 58.5938 107.109 58.5938Z" fill="#8F7CF6"/>
<path d="M95.7973 14.8277C86.2355 5.26594 73.5225 0 60 0C46.4775 0 33.7645 5.26594 24.2027 14.8277C14.6409 24.3895 9.375 37.1025 9.375 50.625V51.5625H23.4375V50.625C23.4375 30.4643 39.8393 14.0625 60 14.0625C80.1607 14.0625 96.5625 30.4643 96.5625 50.625V51.5625H110.625V50.625C110.625 37.1025 105.359 24.3895 95.7973 14.8277Z" fill="#FFACAC"/>
</g>
<defs>
<clipPath id="clip0_244_2607">
<rect width="120" height="120" fill="white"/>
</clipPath>
</defs>
</svg>
