<svg width="120" height="120" viewBox="0 0 120 120" fill="none" xmlns="http://www.w3.org/2000/svg">
<path d="M102.356 114.523C102.843 114.223 103.433 114.129 103.985 114.282L114.818 117.279C116.316 117.693 117.694 116.316 117.279 114.818L114.283 103.985C114.13 103.433 114.224 102.843 114.524 102.356C117.996 96.7167 120 90.0769 120 82.9688C120 62.5168 103.421 45.9375 82.9688 45.9375C62.5168 45.9375 45.9375 62.5168 45.9375 82.9688C45.9375 103.421 62.5168 120 82.9688 120C90.0768 120 96.7166 117.996 102.356 114.523Z" fill="#C8F031"/>
<path d="M45.8203 0L27.0703 45.8203L45.8203 91.6406C71.0861 91.6406 91.6406 71.0861 91.6406 45.8203C91.6406 20.5545 71.0861 0 45.8203 0Z" fill="#8F7CF6"/>
<path d="M0 45.8203C0 53.769 2.04238 61.5155 5.92785 68.3746C6.19561 68.8473 6.27194 69.4062 6.12711 69.9298L1.10939 88.0696C0.695105 89.5673 2.0724 90.9447 3.57011 90.5305L21.7109 85.5135C22.2344 85.3687 22.7933 85.445 23.266 85.7127C30.1251 89.5982 37.8716 91.6406 45.8203 91.6406V0C20.5545 0 0 20.5545 0 45.8203Z" fill="#8F7CF6"/>
<path fill-rule="evenodd" clip-rule="evenodd" d="M31.8983 33.1622C31.7424 34.2557 32.6528 35.1562 33.7574 35.1562H36.7886C37.8932 35.1562 38.7601 34.2427 39.0705 33.1826C39.9255 30.2631 42.6275 28.125 45.8199 28.125C49.6971 28.125 52.8511 31.279 52.8511 35.1562C52.8511 37.153 52.0382 38.996 50.5623 40.3464L45.8199 44.6868C45.8199 44.6869 45.8199 44.6869 45.8199 44.687C45.8199 44.687 45.8199 44.687 45.8198 44.6871L42.9539 47.3105C42.54 47.6893 42.3043 48.2246 42.3043 48.7857V54.7267C42.3043 55.6975 43.0913 56.4845 44.0621 56.4845H45.8198C45.8199 56.4845 45.8199 56.4845 45.8199 56.4844C45.8199 56.4844 45.8199 56.4844 45.82 56.4844H47.5777C48.5485 56.4844 49.3355 55.6974 49.3355 54.7266V51.882C49.3355 51.3209 49.5713 50.7855 49.9852 50.4067L55.3093 45.5338C58.2152 42.8741 59.8824 39.0921 59.8824 35.1562C59.8824 27.4017 53.5744 21.0938 45.8199 21.0938C38.7422 21.0938 32.8695 26.3487 31.8983 33.1622ZM44.3043 63.5156C43.1997 63.5156 42.3043 64.4111 42.3043 65.5156V68.5469C42.3043 69.6514 43.1997 70.5469 44.3043 70.5469H47.3355C48.4401 70.5469 49.3355 69.6514 49.3355 68.5469V65.5156C49.3355 64.4111 48.4401 63.5156 47.3355 63.5156H44.3043Z" fill="white"/>
</svg>
