<svg width="237" height="73" viewBox="0 0 237 73" fill="none" xmlns="http://www.w3.org/2000/svg">
<path d="M109.458 68.602C117.322 68.5842 125.16 68.3125 132.974 67.9385C147.753 67.186 162.415 65.7344 176.633 63.4679C183.767 62.3725 190.682 61.0544 197.228 59.398C203.733 57.7282 209.885 55.7155 214.971 53.1729C215.483 52.9102 215.986 52.643 216.448 52.3581L217.765 51.4808L217.665 51.5209C220.459 49.8867 222.826 48.07 224.58 46.1152C226.343 44.1693 227.526 42.0631 228.13 39.8901C229.255 35.5353 228.046 30.9756 225.05 26.7899C223.288 24.372 220.921 22.0744 218.026 19.9993C215.138 17.9332 211.647 16.0319 207.845 14.3665C200.199 11.0224 191.11 8.57339 181.517 6.92139C171.899 5.25603 161.786 4.43671 151.522 4.1918C141.257 3.94245 130.876 4.2586 120.486 4.82411C113.99 5.15362 102.962 6.11097 102.71 4.60146C102.584 3.81777 104.304 3.03407 107.51 2.34388C110.716 1.65369 115.408 1.06147 121.207 0.72305C135.232 -0.0829119 149.617 -0.358987 163.842 0.651805C170.968 1.12826 178.001 1.99656 184.841 3.1632C188.24 3.78214 191.63 4.43226 194.904 5.23822C196.565 5.6078 198.16 6.06199 199.78 6.48056C200.577 6.7032 201.366 6.9392 202.155 7.17075C202.944 7.39784 203.741 7.62939 204.505 7.88765C213.577 10.7642 221.727 14.647 227.518 19.5184C233.267 24.3542 236.649 29.987 236.976 35.7579C237.136 38.6389 236.498 41.5599 234.937 44.3563C233.393 47.1572 230.875 49.8244 227.669 52.1666C224.463 54.5221 220.585 56.5793 216.355 58.3293C212.125 60.0882 207.577 61.5665 202.893 62.8445C194.476 65.1466 185.588 66.7852 176.717 68.1389C167.812 69.5014 158.756 70.5746 149.617 71.3627C131.329 72.939 112.714 73.371 94.2332 72.6852C85.5552 72.3602 76.9023 71.808 68.325 70.9931C59.6721 70.1649 51.1032 68.9537 42.828 67.2082C38.6904 66.3444 34.6283 65.3291 30.7005 64.1536C26.7727 62.987 22.9876 61.6333 19.4459 60.0837C15.8958 58.543 12.6478 56.7619 9.81109 54.7804C6.98275 52.7989 4.67476 50.5769 2.97944 48.2303C0.0839577 44.1871 -0.746919 39.6363 0.688232 35.4017C2.03106 31.1403 5.34618 27.1729 9.76074 23.6952C14.2257 20.2264 19.8152 17.2074 26.2272 14.7984C29.4332 13.5917 32.8323 12.5364 36.4075 11.6503C37.3056 11.4321 38.212 11.2273 39.1184 11.0224L41.8544 10.4837C43.6588 10.0963 45.5388 9.83799 47.3936 9.53075C48.258 9.37935 49.1644 9.27694 50.0625 9.16561C50.9605 9.05429 51.8669 8.93852 52.7649 8.8272C54.5861 8.64018 56.4157 8.45761 58.237 8.2706C60.0666 8.13701 61.871 7.93663 63.6586 7.7986C64.5483 7.72735 65.4379 7.65165 66.3107 7.5626C66.7472 7.51807 67.1836 7.47354 67.62 7.42901C68.0564 7.38894 68.4844 7.35331 68.9125 7.31324C69.9731 7.23784 70.9183 7.4112 72.0094 7.43346C73.092 7.46018 74.1915 7.50026 75.2993 7.50471C77.5234 7.50471 79.7642 7.55814 82.0219 7.58041C86.4952 7.70954 90.9769 7.95445 94.72 8.88063H94.7284C95.4082 8.96078 96.0964 9.04094 96.7846 9.12109L98.824 9.40161C100.175 9.58863 101.535 9.74894 102.853 9.91369C108.946 10.595 112.622 11.343 114.191 11.9442C115.76 12.5498 115.181 13.0485 112.739 13.5383C111.673 13.7565 112.353 14.3932 109.449 14.1661C105.244 14.1127 100.754 13.5873 96.2559 13.0975C91.7658 12.6121 87.175 12.0377 82.7268 11.8329C71.8499 11.2807 60.8387 11.5568 50.4653 13.0797L46.6215 13.7164C45.3458 13.9346 44.1204 14.2196 42.8615 14.4689C40.3773 14.9855 38.0273 15.6133 35.7361 16.3169C31.1621 17.7373 26.9742 19.5095 23.273 21.5311C19.5718 23.5527 16.4161 25.8504 13.9403 28.3128C11.4645 30.7796 9.71877 33.438 8.92986 36.1542C8.14095 38.8704 8.31719 41.6401 9.56771 44.2717C10.8602 46.9212 13.0507 49.4415 16.114 51.6723C19.832 54.4286 24.6997 56.7753 30.1298 58.7256C35.5683 60.6804 41.5607 62.2611 47.7964 63.5347C54.0322 64.8082 60.5198 65.7833 67.108 66.4913L69.5839 66.7452L72.0933 66.9678C73.7718 67.1103 75.442 67.2706 77.1205 67.3953C80.486 67.6313 83.8515 67.8806 87.2253 68.0276C94.6277 68.3927 102.055 68.4328 109.575 68.5797L109.458 68.602Z" fill="#8F7CF6"/>
</svg>
