<svg width="60" height="60" viewBox="0 0 60 60" fill="none" xmlns="http://www.w3.org/2000/svg">
<path fill-rule="evenodd" clip-rule="evenodd" d="M13.5188 34.4097L12.7988 35.1315C11.3086 36.5805 10.3722 38.505 10.1518 40.5718C10.0384 41.8162 10.1993 43.0703 10.6233 44.2458C11.0473 45.4212 11.724 46.4893 12.6057 47.3748C13.392 48.168 14.328 48.7972 15.3595 49.2257C16.3909 49.6541 17.4972 49.8734 18.6141 49.8707C18.87 49.8707 19.1277 49.8592 19.3874 49.8362C21.4506 49.6142 23.3706 48.6752 24.8126 47.1829L25.5338 46.4604C26.309 45.682 26.7442 44.6282 26.7442 43.5296C26.7442 42.431 26.309 41.3772 25.5338 40.5988L19.3617 34.4097C18.5756 33.6564 17.5289 33.2359 16.4402 33.2359C15.3515 33.2359 14.3048 33.6564 13.5188 34.4097ZM24.2482 43.5293C24.2489 43.7448 24.207 43.9582 24.1247 44.1573C24.0425 44.3565 23.9216 44.5373 23.769 44.6895L23.0479 45.4119C22.02 46.4892 20.6471 47.1722 19.1679 47.3422C18.9797 47.3585 18.7985 47.3666 18.6147 47.3666C17.7787 47.3654 16.9521 47.1898 16.1878 46.851C15.4235 46.5122 14.7383 46.0177 14.1759 45.399C13.6136 44.7804 13.1865 44.0512 12.9219 43.2582C12.6574 42.4651 12.5612 41.6255 12.6396 40.7932C12.8089 39.3123 13.4901 37.9371 14.5654 36.905L15.2854 36.1832C15.4369 36.0309 15.617 35.91 15.8154 35.8274C16.0138 35.745 16.2266 35.7025 16.4415 35.7025C16.6563 35.7025 16.8691 35.745 17.0675 35.8274C17.2659 35.91 17.446 36.0309 17.5976 36.1832L23.7697 42.3729C23.9217 42.5246 24.0422 42.7049 24.1243 42.9034C24.2064 43.1018 24.2485 43.3145 24.2482 43.5293ZM53.1402 6.86976C51.7292 5.4418 49.5568 4.82847 46.6978 5.04107C46.643 5.04252 46.5886 5.05118 46.536 5.06679L42.0038 6.03066C41.7659 6.08051 41.5475 6.19798 41.3747 6.36897C41.202 6.53995 41.0822 6.75716 41.0299 6.99454L40.2435 10.7384L36.5109 11.5399C36.2734 11.5881 36.0555 11.7054 35.8845 11.877C35.7135 12.0485 35.5969 12.2668 35.5495 12.5044L34.6628 16.6861L26.8099 24.574L25.4372 23.1943C24.9213 22.6747 24.3076 22.2622 23.6316 21.9808C22.9555 21.6994 22.2305 21.5545 21.4982 21.5545C20.766 21.5545 20.0409 21.6994 19.3649 21.9808C18.6889 22.2622 18.0752 22.6747 17.5593 23.1943L8.93202 31.8486C6.41417 34.3704 5 37.7883 5 41.3519C5 44.9155 6.41417 48.3335 8.93202 50.8553L9.13207 51.0685C10.3766 52.3148 11.8547 53.3036 13.4817 53.9782C15.1088 54.6528 16.8528 55 18.6141 55C20.3754 55 22.1195 54.6528 23.7465 53.9782C25.3735 53.3036 26.8516 52.3148 28.0962 51.0685L36.7228 42.4143C37.7666 41.3643 38.3525 39.9439 38.3525 38.4634C38.3525 36.9829 37.7666 35.5625 36.7228 34.5126L28.5703 26.3368L36.6852 18.198C36.8568 18.0267 36.9741 17.8086 37.0226 17.5709L37.8216 13.8145L41.5541 13.0256C41.7916 12.9728 42.0087 12.8525 42.1793 12.6791C42.3499 12.5058 42.4666 12.2868 42.5155 12.0485L43.3145 8.30522L46.9599 7.52886C49.0294 7.39089 50.5057 7.75399 51.3799 8.6307C52.2535 9.49424 52.6159 10.9843 52.478 13.0632L51.7041 16.7193L47.9715 17.5082C47.7336 17.5625 47.5159 17.6831 47.3436 17.8558C47.1712 18.0286 47.0513 18.2466 46.9975 18.4846L46.2112 22.2285L42.466 23.03C42.2281 23.0781 42.0099 23.1958 41.8389 23.368L37.2948 27.9259L35.5965 26.2227L42.9376 18.8603C43.1715 18.6235 43.3026 18.3041 43.3026 17.9713C43.3026 17.6385 43.1715 17.3191 42.9376 17.0824C42.8222 16.9664 42.6851 16.8744 42.534 16.8117C42.383 16.7489 42.221 16.7166 42.0574 16.7166C41.8939 16.7166 41.7319 16.7489 41.5808 16.8117C41.4298 16.8744 41.2927 16.9664 41.1773 17.0824L32.9501 25.3466C32.7164 25.5809 32.5851 25.8983 32.5851 26.2292C32.5851 26.5602 32.7164 26.8776 32.9501 27.1119L36.408 30.5799C36.5235 30.6983 36.6613 30.7925 36.8136 30.8571C36.9658 30.9217 37.1294 30.9554 37.2948 30.9562C37.6281 30.952 37.9464 30.8169 38.1809 30.5799L43.3496 25.3968L47.5193 24.5075C47.7567 24.4594 47.9745 24.3422 48.1456 24.1707C48.3166 23.9992 48.4332 23.7811 48.4807 23.5436L49.2797 19.7991L53.0129 18.9983C53.2502 18.9498 53.468 18.8325 53.639 18.6609C53.81 18.4894 53.9266 18.2712 53.9743 18.0337L54.935 13.4884C54.9476 13.4388 54.9476 13.3761 54.9601 13.3259C55.1771 10.4631 54.5631 8.28454 53.1402 6.86976ZM34.9499 36.2817C35.5256 36.8606 35.8488 37.6439 35.8488 38.4603C35.8488 39.2767 35.5256 40.06 34.9499 40.6389L26.3233 49.2931C25.3128 50.309 24.1116 51.1151 22.7886 51.6652C21.4656 52.2152 20.0469 52.4984 18.6141 52.4984C17.1813 52.4984 15.7626 52.2152 14.4396 51.6652C13.1166 51.1151 11.9154 50.309 10.9049 49.2931L10.6923 49.0931C8.64561 47.0379 7.49646 44.2556 7.49646 41.3551C7.49646 38.4546 8.64561 35.6722 10.6923 33.617L19.3196 24.9628C19.6047 24.6771 19.9433 24.4505 20.3161 24.2959C20.6888 24.1413 21.0884 24.0617 21.492 24.0617C21.8955 24.0617 22.2951 24.1413 22.6679 24.2959C23.0406 24.4505 23.3792 24.6771 23.6643 24.9628L34.9499 36.2817Z" fill="#008EFF"/>
</svg>
