<svg width="266" height="434" viewBox="0 0 266 434" fill="none" xmlns="http://www.w3.org/2000/svg">
<path fill-rule="evenodd" clip-rule="evenodd" d="M59.946 430.118C30.0383 434.116 4.56449 409.221 -25.2082 404.318C-75.0353 396.112 -139.976 429.337 -173.584 391.66C-204.25 357.281 -178.027 297.722 -156.719 256.882C-138.454 221.874 -97.661 207.401 -65.4948 184.487C-45.493 170.238 -19.4218 165.975 -3.21388 147.528C24.3701 116.133 23.2566 61.7357 59.946 41.7142C96.0824 21.9946 148.337 22.1363 181.243 46.8693C214.711 72.0244 206.931 124.327 221.878 163.426C234.171 195.583 270.74 223.712 261.529 256.882C251.718 292.212 203.312 298.828 177.144 324.521C159.363 341.979 151.406 366.501 132.893 383.182C111.041 402.871 89.105 426.22 59.946 430.118Z" stroke="#FAF1F1" stroke-width="5.36256"/>
<path fill-rule="evenodd" clip-rule="evenodd" d="M27.8999 367.998C1.86432 371.479 -20.3113 349.808 -46.2293 345.54C-89.6052 338.397 -146.138 367.318 -175.395 334.521C-202.09 304.595 -179.262 252.751 -160.713 217.201C-144.813 186.727 -109.301 174.129 -81.2999 154.182C-63.8877 141.779 -41.192 138.068 -27.0826 122.01C-3.07001 94.6816 -4.03929 47.3303 27.8999 29.9021C59.3576 12.7365 104.847 12.8599 133.493 34.3894C162.627 56.2863 155.855 101.814 168.867 135.849C179.568 163.841 211.402 188.327 203.383 217.201C194.843 247.954 152.704 253.714 129.924 276.078C114.445 291.275 107.518 312.621 91.4021 327.141C72.3794 344.28 53.2836 364.605 27.8999 367.998Z" stroke="#FAF1F1" stroke-width="5.36256"/>
<path fill-rule="evenodd" clip-rule="evenodd" d="M-14.5547 315.077C-37.6861 318.176 -57.3881 298.876 -80.415 295.075C-118.953 288.714 -169.18 314.471 -195.172 285.262C-218.89 258.61 -198.609 212.438 -182.129 180.778C-168.002 153.638 -136.452 142.418 -111.574 124.654C-96.1037 113.607 -75.9397 110.303 -63.4041 96.0019C-42.07 71.6633 -42.9311 29.4926 -14.5547 13.9712C13.3941 -1.31621 53.8092 -1.20634 79.2596 17.9676C105.144 37.4688 99.1272 78.0155 110.688 108.327C120.196 133.256 148.478 155.063 141.354 180.778C133.767 208.166 96.3279 213.296 76.089 233.214C62.3366 246.748 56.1827 265.758 41.8641 278.69C24.9634 293.953 7.99757 312.055 -14.5547 315.077Z" stroke="#FAF1F1" stroke-width="5.36256"/>
</svg>
