<svg width="186" height="26" viewBox="0 0 186 26" fill="none" xmlns="http://www.w3.org/2000/svg">
<path fill-rule="evenodd" clip-rule="evenodd" d="M49.3144 15.0182C41.3655 17.3228 32.1879 19.6163 23.3592 20.189C15.813 20.6778 8.52417 19.9186 2.55813 16.6884C1.71713 16.2336 0.663967 16.5463 0.209148 17.388C-0.246366 18.229 0.0670133 19.2822 0.908014 19.7377C7.41624 23.2604 15.352 24.1819 23.5831 23.648C32.5707 23.0656 41.9139 20.7568 50.0223 18.4189C50.9631 20.3249 52.9114 22.1019 56.3433 23.413C61.6147 25.4271 68.812 25.4021 76.3942 24.2671C87.391 22.6219 99.2205 18.6984 106.826 15.9105C107.138 15.7968 107.603 15.6159 108.171 15.3774C108.345 15.7601 108.539 16.1373 108.754 16.5075C110.619 19.7342 113.919 22.3432 117.282 23.275C138.608 29.1835 163.498 22.104 183.764 16.3425C184.679 16.0811 185.213 15.1215 184.957 14.2015C184.693 13.2815 183.737 12.7469 182.814 13.0083C163.117 18.609 138.934 25.6753 118.204 19.9339C115.652 19.2267 113.17 17.2216 111.756 14.7728C111.596 14.4996 111.458 14.2202 111.326 13.9366C114.12 12.5521 117.406 10.6219 119.174 8.55577C120.991 6.43767 121.441 4.17675 119.861 2.04131C118.502 0.215796 116.443 0.0604882 114.3 1.00687C111.991 2.02051 109.613 4.39025 108.844 5.50234C107.402 7.57954 106.944 9.83286 107.208 12.03C106.528 12.317 105.976 12.5306 105.636 12.6554C98.1965 15.3815 86.6339 19.2295 75.8812 20.8387C68.9625 21.8745 62.3905 22.0125 57.5802 20.1751C55.5287 19.391 54.1732 18.4758 53.4376 17.4137C54.8894 16.9796 56.2893 16.5525 57.6267 16.1449C60.2717 15.3385 65.7788 14.0039 69.7134 11.6251C72.8423 9.73373 74.9639 7.16081 74.8405 3.93547C74.7774 2.27843 73.8185 1.17256 72.2925 0.552727C70.0122 -0.372859 66.0686 0.0750182 64.6001 0.387013C60.1462 1.33132 54.2017 5.24029 51.2606 9.64497C50.0868 11.4025 49.3886 13.2412 49.3144 15.0182ZM52.9731 13.9352C54.2315 13.5567 55.4476 13.1851 56.6158 12.8287C59.0847 12.0757 64.2458 10.8798 67.9197 8.65835C69.8652 7.48247 71.4536 6.07366 71.3766 4.06788C71.3704 3.91188 71.2158 3.86752 71.0792 3.80374C70.8677 3.70598 70.6258 3.63871 70.3678 3.58601C68.6227 3.22965 66.2786 3.57421 65.3191 3.77805C61.5821 4.57052 56.6109 7.87421 54.1434 11.5703C53.622 12.351 53.2067 13.1462 52.9731 13.9352ZM110.633 10.434C112.262 9.59575 113.967 8.58209 115.313 7.47901C116.027 6.89316 116.63 6.29068 117.011 5.66531C117.33 5.14809 117.455 4.61836 117.074 4.10668C116.921 3.89938 116.692 3.89525 116.457 3.93407C116.207 3.97567 115.95 4.06439 115.694 4.17879C114.002 4.92342 112.255 6.66297 111.693 7.47901C111.035 8.4254 110.709 9.42658 110.633 10.434Z" fill="#1C1C1D"/>
</svg>
