<svg width="114" height="105" viewBox="0 0 114 105" fill="none" xmlns="http://www.w3.org/2000/svg">
<path fill-rule="evenodd" clip-rule="evenodd" d="M91.1783 41.5012C93.0197 41.1924 94.8402 40.9598 96.6608 40.8095C99.3918 40.5831 102.144 40.7231 104.875 40.6428C106.033 40.6078 109.054 40.4698 109.488 40.5254C113.275 41.0298 113.854 44.0705 113.957 44.9599C114.02 45.3902 114.516 49.8082 109.592 50.7614C103.571 51.9308 97.5092 52.3055 91.5713 51.8917C86.5231 52.8573 81.4956 54.5084 76.9439 56.6886C58.8406 65.3641 57.082 81.8957 57.2475 99.8068C57.2888 102.561 55.1165 104.849 52.3648 104.993C49.5924 105.137 47.1924 103.086 46.9441 100.344C45.9717 90.3326 37.9027 72.5696 29.5028 66.4284C27.7442 65.1438 23.5027 64.3965 19.3442 63.4083C13.5718 62.0289 7.86156 60.3881 5.46158 58.5497C5.08917 58.2738 1.28222 54.9201 0.7236 53.9195C-0.600527 51.5149 0.165128 49.5901 0.868566 48.4969C1.57201 47.4037 2.9582 46.1664 5.25474 45.6723C7.65471 45.1555 12.5789 45.592 13.6341 45.5117C17.4616 45.2193 24.9719 44.4577 31.427 42.9033C34.9028 42.0654 38.1097 41.1719 39.7028 39.6937C45.5993 34.2216 44.7303 25.4719 43.7579 18.1037C43.6544 17.2575 43.5302 16.4114 43.4268 15.5673C42.5371 12.5677 41.8752 9.38279 41.4821 6.01675C40.8821 0.933722 45.5786 0.0979301 45.889 0.0526379C46.5717 -0.0420642 50.0888 -0.394146 51.4957 3.43717C51.6406 3.85509 52.3234 6.93912 52.5923 8.12701C52.9647 9.78224 53.2543 11.456 53.5233 13.1359C58.9439 30.489 74.1715 39.914 91.1783 41.5012ZM72.3714 47.4572C58.7577 54.0081 52.1785 63.9497 49.1992 75.734L49.1992 75.7319C45.3303 68.374 40.4888 61.681 35.6268 58.1338C33.7854 56.7873 30.0821 55.5521 25.9235 54.4384C29.7925 53.8351 33.9098 53.0199 37.427 51.9432C41.4408 50.7183 44.7716 49.0691 46.7577 47.2286C50.5853 43.6752 52.7164 39.216 53.7715 34.4212C58.8818 40.161 65.2542 44.5132 72.3714 47.4572Z" fill="#CECDFC"/>
</svg>
