<svg width="35" height="35" viewBox="0 0 35 35" fill="none" xmlns="http://www.w3.org/2000/svg">
<path d="M8.58671 4.84333C8.21379 0.7821 13.4535 -1.15778 15.8152 2.16717L19.6203 7.52439C20.444 8.6841 21.8227 9.31776 23.2392 9.18769L29.7827 8.58683C33.8439 8.21391 35.7838 13.4536 32.4589 15.8153L27.1017 19.6204C25.942 20.4441 25.3083 21.8228 25.4384 23.2393L26.0392 29.7828C26.4121 33.8441 21.1724 35.7839 18.8108 32.459L15.0057 27.1018C14.1819 25.9421 12.8033 25.3084 11.3867 25.4385L4.84322 26.0393C0.781986 26.4123 -1.1579 21.1725 2.16706 18.8109L7.52428 15.0058C8.68399 14.1821 9.31764 12.8034 9.18757 11.3869L8.58671 4.84333Z" fill="white"/>
</svg>
