<svg width="102" height="94" viewBox="0 0 102 94" fill="none" xmlns="http://www.w3.org/2000/svg">
<path fill-rule="evenodd" clip-rule="evenodd" d="M79.5558 24.3142C81.1084 23.4671 82.6659 22.695 84.2492 21.9969C86.6239 20.9487 89.1314 20.2236 91.5515 19.3068C92.578 18.9171 95.2395 17.859 95.6458 17.7746C99.1928 17.0571 100.658 19.6113 101.027 20.3788C101.217 20.7464 103.037 24.5644 98.9246 26.944C93.8981 29.8571 88.5873 32.0685 83.1421 33.5328C78.9227 35.9619 74.9355 39.0009 71.5388 42.3684C58.0308 55.7654 61.6022 71.1699 67.3258 87.2194C68.2203 89.6827 66.9873 92.4107 64.5685 93.3912C62.1311 94.3781 59.3441 93.277 58.2682 90.8887C54.2811 82.1898 41.5273 68.7176 32.0949 65.7948C30.1204 65.1838 26.0903 65.8237 22.0594 66.2215C16.4618 66.7666 10.8385 67.0576 8.11741 66.1471C7.69811 66.0143 3.24565 64.1768 2.43404 63.4502C0.49999 61.6981 0.586331 59.731 0.875858 58.5308C1.16538 57.3306 2.02133 55.7896 3.9237 54.6353C5.91163 53.4286 10.4563 52.2981 11.376 51.8996C14.712 50.4532 21.1991 47.446 26.4948 44.0525C29.346 42.2244 31.9391 40.4294 32.9053 38.608C36.4813 31.8655 32.9796 24.269 29.8153 17.9462C29.4593 17.2176 29.0847 16.4954 28.7294 15.7686C26.9991 13.3474 25.415 10.6891 24.0153 7.78482C21.8958 3.40112 25.8406 1.19741 26.1044 1.06073C26.6862 0.764457 29.7256 -0.639705 32.1779 2.36927C32.4377 2.70017 34.009 5.26131 34.6196 6.24595C35.4683 7.61871 36.2485 9.03371 37.0123 10.4607C47.2673 24.3834 63.835 28.1466 79.5558 24.3142ZM64.5713 35.4841C54.4216 45.5829 51.6257 56.5542 52.6265 68.0687L52.6259 68.0668C46.8715 62.6491 40.4533 58.1298 34.996 56.4447C32.9282 55.8038 29.228 55.8387 25.158 56.1235C28.4342 54.3848 31.8668 52.3787 34.6808 50.3232C37.8931 47.9808 40.3619 45.4683 41.5673 43.1996C43.8882 38.8217 44.4081 34.1542 43.8603 29.5177C50.2224 33.097 57.2826 35.0386 64.5713 35.4841Z" fill="#12141D"/>
</svg>
