<svg width="116" height="27" viewBox="0 0 116 27" fill="none" xmlns="http://www.w3.org/2000/svg">
<path fill-rule="evenodd" clip-rule="evenodd" d="M26.5015 4.89746C26.5015 2.68832 24.7106 0.897461 22.5015 0.897461H7.55124C3.65695 0.897461 0.5 4.05441 0.5 7.94871V7.94871C0.5 11.843 3.65695 15 7.55124 15H16.5C18.7091 15 20.5 16.7908 20.5 19V19C20.5 21.2091 22.2909 23 24.5 23H39.4502C43.3445 23 46.5015 19.843 46.5015 15.9487V15.9487C46.5015 12.0544 43.3445 8.89746 39.4502 8.89746H30.5015C28.2923 8.89746 26.5015 7.1066 26.5015 4.89746V4.89746Z" fill="#1C1C1D"/>
<path d="M51.4733 21.8975L58.3267 2.83079H63.18L70.06 21.8975H65.1L63.98 18.4575H57.3133L56.22 21.8975H51.4733ZM58.4067 15.0708H62.8867L61.4467 10.4575C61.1267 9.47079 60.7 7.76413 60.7 7.76413H60.6467C60.6467 7.76413 60.1933 9.47079 59.8733 10.4575L58.4067 15.0708ZM76.8033 26.6175C73.0433 26.6175 70.5633 25.0708 70.1367 22.2175H74.35C74.59 22.9375 75.31 23.5508 76.75 23.5508C78.59 23.5508 79.3633 22.5908 79.3633 20.9375V19.5775H79.2567C78.4567 20.4841 77.4167 21.1508 75.7633 21.1508C72.6967 21.1508 69.8433 18.8575 69.8433 14.6708C69.8433 10.6708 72.19 7.84413 75.5767 7.84413C77.39 7.84413 78.6167 8.56413 79.4167 9.71079H79.47V8.24413H83.63V20.5641C83.63 22.6175 82.91 24.1108 81.8167 25.0975C80.6167 26.1641 78.83 26.6175 76.8033 26.6175ZM76.7767 17.9241C78.67 17.9241 79.55 16.4308 79.55 14.5108C79.55 12.6708 78.59 11.1241 76.7767 11.1241C75.15 11.1241 74.0833 12.4575 74.0833 14.5375C74.0833 16.5908 75.15 17.9241 76.7767 17.9241ZM92.0638 26.6175C88.3038 26.6175 85.8238 25.0708 85.3971 22.2175H89.6104C89.8504 22.9375 90.5704 23.5508 92.0104 23.5508C93.8504 23.5508 94.6238 22.5908 94.6238 20.9375V19.5775H94.5171C93.7171 20.4841 92.6771 21.1508 91.0238 21.1508C87.9571 21.1508 85.1038 18.8575 85.1038 14.6708C85.1038 10.6708 87.4504 7.84413 90.8371 7.84413C92.6504 7.84413 93.8771 8.56413 94.6771 9.71079H94.7304V8.24413H98.8904V20.5641C98.8904 22.6175 98.1704 24.1108 97.0771 25.0975C95.8771 26.1641 94.0904 26.6175 92.0638 26.6175ZM92.0371 17.9241C93.9304 17.9241 94.8104 16.4308 94.8104 14.5108C94.8104 12.6708 93.8504 11.1241 92.0371 11.1241C90.4104 11.1241 89.3438 12.4575 89.3438 14.5375C89.3438 16.5908 90.4104 17.9241 92.0371 17.9241ZM107.644 19.2308C109.538 19.2308 110.551 17.5775 110.551 15.0975C110.551 12.6175 109.538 10.9375 107.644 10.9375C105.751 10.9375 104.764 12.6175 104.764 15.0975C104.764 17.5775 105.751 19.2308 107.644 19.2308ZM107.671 22.3241C103.298 22.3241 100.364 19.2041 100.364 15.0975C100.364 10.9908 103.298 7.87079 107.671 7.87079C112.071 7.87079 114.951 10.9908 114.951 15.0975C114.951 19.2041 112.071 22.3241 107.671 22.3241Z" fill="#1C1C1D"/>
</svg>
